<svg xmlns="http://www.w3.org/2000/svg" xmlns:xlink="http://www.w3.org/1999/xlink" width="170" zoomAndPan="magnify" viewBox="0 0 127.5 68.249996" height="90" preserveAspectRatio="xMidYMid meet" version="1.0"><defs><g/><clipPath id="19d3097987"><path d="M 0.445312 0 L 126.558594 0 L 126.558594 67.507812 L 0.445312 67.507812 Z M 0.445312 0 " clip-rule="nonzero"/></clipPath><clipPath id="2c1e7d463f"><path d="M 47.628906 36 L 52 36 L 52 43 L 47.628906 43 Z M 47.628906 36 " clip-rule="nonzero"/></clipPath><clipPath id="16c458d462"><path d="M 47.628906 36 L 52 36 L 52 40 L 47.628906 40 Z M 47.628906 36 " clip-rule="nonzero"/></clipPath><clipPath id="64b9ea7812"><path d="M 47.628906 36 L 53 36 L 53 43 L 47.628906 43 Z M 47.628906 36 " clip-rule="nonzero"/></clipPath><clipPath id="757b744365"><path d="M 49 32.167969 L 79.65625 32.167969 L 79.65625 55.257812 L 49 55.257812 Z M 49 32.167969 " clip-rule="nonzero"/></clipPath><clipPath id="01f70c1cdf"><path d="M 49 32.167969 L 76 32.167969 L 76 55.257812 L 49 55.257812 Z M 49 32.167969 " clip-rule="nonzero"/></clipPath><clipPath id="d58e58acbe"><path d="M 49 32.167969 L 75 32.167969 L 75 55.257812 L 49 55.257812 Z M 49 32.167969 " clip-rule="nonzero"/></clipPath><clipPath id="5dfdb148bb"><path d="M 50 34 L 75 34 L 75 55.257812 L 50 55.257812 Z M 50 34 " clip-rule="nonzero"/></clipPath><clipPath id="09217a2042"><path d="M 64 32.167969 L 79.65625 32.167969 L 79.65625 50 L 64 50 Z M 64 32.167969 " clip-rule="nonzero"/></clipPath><clipPath id="196a85553b"><path d="M 64 32.167969 L 74 32.167969 L 74 42 L 64 42 Z M 64 32.167969 " clip-rule="nonzero"/></clipPath><clipPath id="30aac92f55"><path d="M 49 32.167969 L 79.65625 32.167969 L 79.65625 55.257812 L 49 55.257812 Z M 49 32.167969 " clip-rule="nonzero"/></clipPath><clipPath id="9d7a9584ec"><path d="M 64 32.167969 L 79.65625 32.167969 L 79.65625 46 L 64 46 Z M 64 32.167969 " clip-rule="nonzero"/></clipPath><clipPath id="c4d3b63d57"><path d="M 64 32.167969 L 79.65625 32.167969 L 79.65625 50 L 64 50 Z M 64 32.167969 " clip-rule="nonzero"/></clipPath><clipPath id="fa0311649e"><path d="M 64 32.167969 L 74 32.167969 L 74 42 L 64 42 Z M 64 32.167969 " clip-rule="nonzero"/></clipPath><clipPath id="a4753bcea0"><path d="M 77 47 L 85 47 L 85 55 L 77 55 Z M 77 47 " clip-rule="nonzero"/></clipPath><clipPath id="94503170cf"><path d="M 77.207031 50.203125 L 83.558594 46.3125 L 86.671875 51.394531 L 80.320312 55.28125 Z M 77.207031 50.203125 " clip-rule="nonzero"/></clipPath><clipPath id="3438000c32"><path d="M 77.207031 50.203125 L 83.558594 46.3125 L 86.671875 51.394531 L 80.320312 55.28125 Z M 77.207031 50.203125 " clip-rule="nonzero"/></clipPath><clipPath id="41c2ae2541"><path d="M 77 47 L 85 47 L 85 52 L 77 52 Z M 77 47 " clip-rule="nonzero"/></clipPath><clipPath id="77b2dd954d"><path d="M 77.207031 50.203125 L 83.558594 46.3125 L 86.671875 51.394531 L 80.320312 55.28125 Z M 77.207031 50.203125 " clip-rule="nonzero"/></clipPath><clipPath id="721cba5194"><path d="M 77.207031 50.203125 L 83.558594 46.3125 L 86.671875 51.394531 L 80.320312 55.28125 Z M 77.207031 50.203125 " clip-rule="nonzero"/></clipPath><clipPath id="3cb3f4412d"><path d="M 84 48 L 85 48 L 85 49 L 84 49 Z M 84 48 " clip-rule="nonzero"/></clipPath><clipPath id="8553884142"><path d="M 77.207031 50.203125 L 83.558594 46.3125 L 86.671875 51.394531 L 80.320312 55.28125 Z M 77.207031 50.203125 " clip-rule="nonzero"/></clipPath><clipPath id="780626cbe0"><path d="M 77.207031 50.203125 L 83.558594 46.3125 L 86.671875 51.394531 L 80.320312 55.28125 Z M 77.207031 50.203125 " clip-rule="nonzero"/></clipPath><clipPath id="25195da75a"><path d="M 84 48 L 85 48 L 85 50 L 84 50 Z M 84 48 " clip-rule="nonzero"/></clipPath><clipPath id="68a931e30d"><path d="M 77.207031 50.203125 L 83.558594 46.3125 L 86.671875 51.394531 L 80.320312 55.28125 Z M 77.207031 50.203125 " clip-rule="nonzero"/></clipPath><clipPath id="e2e7d7204b"><path d="M 77.207031 50.203125 L 83.558594 46.3125 L 86.671875 51.394531 L 80.320312 55.28125 Z M 77.207031 50.203125 " clip-rule="nonzero"/></clipPath><clipPath id="b5b3d26e9b"><path d="M 83 49 L 85 49 L 85 51 L 83 51 Z M 83 49 " clip-rule="nonzero"/></clipPath><clipPath id="693bc0dd60"><path d="M 77.207031 50.203125 L 83.558594 46.3125 L 86.671875 51.394531 L 80.320312 55.28125 Z M 77.207031 50.203125 " clip-rule="nonzero"/></clipPath><clipPath id="933945c612"><path d="M 77.207031 50.203125 L 83.558594 46.3125 L 86.671875 51.394531 L 80.320312 55.28125 Z M 77.207031 50.203125 " clip-rule="nonzero"/></clipPath><clipPath id="f19125f427"><path d="M 80 51 L 82 51 L 82 53 L 80 53 Z M 80 51 " clip-rule="nonzero"/></clipPath><clipPath id="b231ddf773"><path d="M 77.207031 50.203125 L 83.558594 46.3125 L 86.671875 51.394531 L 80.320312 55.28125 Z M 77.207031 50.203125 " clip-rule="nonzero"/></clipPath><clipPath id="0e2730d5ca"><path d="M 77.207031 50.203125 L 83.558594 46.3125 L 86.671875 51.394531 L 80.320312 55.28125 Z M 77.207031 50.203125 " clip-rule="nonzero"/></clipPath><clipPath id="4651c9877c"><path d="M 81 52 L 82 52 L 82 53 L 81 53 Z M 81 52 " clip-rule="nonzero"/></clipPath><clipPath id="bdc0fbe644"><path d="M 77.207031 50.203125 L 83.558594 46.3125 L 86.671875 51.394531 L 80.320312 55.28125 Z M 77.207031 50.203125 " clip-rule="nonzero"/></clipPath><clipPath id="81f81c6276"><path d="M 77.207031 50.203125 L 83.558594 46.3125 L 86.671875 51.394531 L 80.320312 55.28125 Z M 77.207031 50.203125 " clip-rule="nonzero"/></clipPath><clipPath id="f29078123e"><path d="M 80 52 L 82 52 L 82 53 L 80 53 Z M 80 52 " clip-rule="nonzero"/></clipPath><clipPath id="7f38a5bcd6"><path d="M 77.207031 50.203125 L 83.558594 46.3125 L 86.671875 51.394531 L 80.320312 55.28125 Z M 77.207031 50.203125 " clip-rule="nonzero"/></clipPath><clipPath id="12e17cfd6d"><path d="M 77.207031 50.203125 L 83.558594 46.3125 L 86.671875 51.394531 L 80.320312 55.28125 Z M 77.207031 50.203125 " clip-rule="nonzero"/></clipPath><clipPath id="cc5eb32fee"><path d="M 81 52 L 82 52 L 82 53 L 81 53 Z M 81 52 " clip-rule="nonzero"/></clipPath><clipPath id="2ad75ab541"><path d="M 77.207031 50.203125 L 83.558594 46.3125 L 86.671875 51.394531 L 80.320312 55.28125 Z M 77.207031 50.203125 " clip-rule="nonzero"/></clipPath><clipPath id="8becbb4259"><path d="M 77.207031 50.203125 L 83.558594 46.3125 L 86.671875 51.394531 L 80.320312 55.28125 Z M 77.207031 50.203125 " clip-rule="nonzero"/></clipPath><clipPath id="8822081197"><path d="M 80 52 L 82 52 L 82 53 L 80 53 Z M 80 52 " clip-rule="nonzero"/></clipPath><clipPath id="37c43b5d99"><path d="M 77.207031 50.203125 L 83.558594 46.3125 L 86.671875 51.394531 L 80.320312 55.28125 Z M 77.207031 50.203125 " clip-rule="nonzero"/></clipPath><clipPath id="1ec9058548"><path d="M 77.207031 50.203125 L 83.558594 46.3125 L 86.671875 51.394531 L 80.320312 55.28125 Z M 77.207031 50.203125 " clip-rule="nonzero"/></clipPath><clipPath id="40d3e04cea"><path d="M 79 51 L 81 51 L 81 53 L 79 53 Z M 79 51 " clip-rule="nonzero"/></clipPath><clipPath id="15b577fa5e"><path d="M 77.207031 50.203125 L 83.558594 46.3125 L 86.671875 51.394531 L 80.320312 55.28125 Z M 77.207031 50.203125 " clip-rule="nonzero"/></clipPath><clipPath id="c880e78945"><path d="M 77.207031 50.203125 L 83.558594 46.3125 L 86.671875 51.394531 L 80.320312 55.28125 Z M 77.207031 50.203125 " clip-rule="nonzero"/></clipPath><clipPath id="ea10efb60c"><path d="M 79 51 L 80 51 L 80 53 L 79 53 Z M 79 51 " clip-rule="nonzero"/></clipPath><clipPath id="fba245fec1"><path d="M 77.207031 50.203125 L 83.558594 46.3125 L 86.671875 51.394531 L 80.320312 55.28125 Z M 77.207031 50.203125 " clip-rule="nonzero"/></clipPath><clipPath id="e5767d6f75"><path d="M 77.207031 50.203125 L 83.558594 46.3125 L 86.671875 51.394531 L 80.320312 55.28125 Z M 77.207031 50.203125 " clip-rule="nonzero"/></clipPath><clipPath id="b19dc03e47"><path d="M 43.785156 47.203125 L 48.253906 47.203125 L 48.253906 51.671875 L 43.785156 51.671875 Z M 43.785156 47.203125 " clip-rule="nonzero"/></clipPath><clipPath id="74cce9a115"><path d="M 42 14 L 47 14 L 47 20 L 42 20 Z M 42 14 " clip-rule="nonzero"/></clipPath><clipPath id="e56ec5b772"><path d="M 43.902344 12.015625 L 49.484375 14.09375 L 47.144531 20.375 L 41.5625 18.296875 Z M 43.902344 12.015625 " clip-rule="nonzero"/></clipPath><clipPath id="8b6fd9f294"><path d="M 43.902344 12.015625 L 49.484375 14.09375 L 47.144531 20.375 L 41.5625 18.296875 Z M 43.902344 12.015625 " clip-rule="nonzero"/></clipPath><clipPath id="2ed8fda639"><path d="M 44 12 L 47 12 L 47 15 L 44 15 Z M 44 12 " clip-rule="nonzero"/></clipPath><clipPath id="ee90cffc38"><path d="M 43.902344 12.015625 L 49.484375 14.09375 L 47.144531 20.375 L 41.5625 18.296875 Z M 43.902344 12.015625 " clip-rule="nonzero"/></clipPath><clipPath id="a54f034b8a"><path d="M 43.902344 12.015625 L 49.484375 14.09375 L 47.144531 20.375 L 41.5625 18.296875 Z M 43.902344 12.015625 " clip-rule="nonzero"/></clipPath><clipPath id="9741792fe5"><path d="M 45 13 L 48 13 L 48 16 L 45 16 Z M 45 13 " clip-rule="nonzero"/></clipPath><clipPath id="4f424c8b6d"><path d="M 43.902344 12.015625 L 49.484375 14.09375 L 47.144531 20.375 L 41.5625 18.296875 Z M 43.902344 12.015625 " clip-rule="nonzero"/></clipPath><clipPath id="ee2b111e65"><path d="M 43.902344 12.015625 L 49.484375 14.09375 L 47.144531 20.375 L 41.5625 18.296875 Z M 43.902344 12.015625 " clip-rule="nonzero"/></clipPath><clipPath id="84c5324203"><path d="M 46 15 L 49 15 L 49 18 L 46 18 Z M 46 15 " clip-rule="nonzero"/></clipPath><clipPath id="4dd38fe0d0"><path d="M 43.902344 12.015625 L 49.484375 14.09375 L 47.144531 20.375 L 41.5625 18.296875 Z M 43.902344 12.015625 " clip-rule="nonzero"/></clipPath><clipPath id="90c68a6187"><path d="M 43.902344 12.015625 L 49.484375 14.09375 L 47.144531 20.375 L 41.5625 18.296875 Z M 43.902344 12.015625 " clip-rule="nonzero"/></clipPath><clipPath id="9cb99a5e9f"><path d="M 75.484375 10.796875 L 86.65625 10.796875 L 86.65625 24.203125 L 75.484375 24.203125 Z M 75.484375 10.796875 " clip-rule="nonzero"/></clipPath></defs><g clip-path="url(#19d3097987)"><path fill="#ffffff" d="M 0.445312 0 L 127.054688 0 L 127.054688 74.476562 L 0.445312 74.476562 Z M 0.445312 0 " fill-opacity="1" fill-rule="nonzero"/><path fill="#ffffff" d="M 0.445312 0 L 127.054688 0 L 127.054688 67.773438 L 0.445312 67.773438 Z M 0.445312 0 " fill-opacity="1" fill-rule="nonzero"/><path fill="#000000" d="M 0.445312 0 L 127.054688 0 L 127.054688 67.773438 L 0.445312 67.773438 Z M 0.445312 0 " fill-opacity="1" fill-rule="nonzero"/></g><g clip-path="url(#2c1e7d463f)"><path fill="#f97e2b" d="M 51.867188 36.75 C 51.371094 38.617188 51.003906 40.507812 50.761719 42.425781 C 50.515625 42.292969 50.242188 42.132812 49.964844 41.949219 C 46.136719 39.445312 47.867188 37.15625 51.867188 36.75 Z M 51.867188 36.75 " fill-opacity="1" fill-rule="nonzero"/><path fill="#4f2020" d="M 51.867188 36.75 C 51.371094 38.617188 51.003906 40.507812 50.761719 42.425781 C 50.515625 42.292969 50.242188 42.132812 49.964844 41.949219 C 49.03125 41.328125 48 40.46875 47.832031 39.394531 C 49.140625 40.570312 50.5625 37.746094 51.222656 36.855469 C 51.449219 36.8125 51.667969 36.777344 51.867188 36.75 Z M 51.867188 36.75 " fill-opacity="0.2078" fill-rule="nonzero"/></g><path fill="#4f2020" d="M 63.1875 54.703125 C 62.371094 54.703125 61.386719 54.296875 60.546875 53.949219 C 60.355469 53.871094 60.171875 53.792969 60.003906 53.730469 C 59.914062 53.695312 59.863281 53.628906 59.859375 53.53125 C 59.839844 53.1875 59.972656 52.84375 60.230469 52.589844 C 60.492188 52.324219 60.84375 52.183594 61.195312 52.203125 C 61.347656 52.210938 61.417969 52.292969 61.40625 52.441406 C 61.398438 52.59375 61.320312 52.664062 61.171875 52.65625 C 60.945312 52.644531 60.71875 52.734375 60.546875 52.90625 C 60.417969 53.039062 60.339844 53.199219 60.316406 53.367188 C 60.445312 53.417969 60.578125 53.472656 60.71875 53.53125 C 61.804688 53.980469 63.15625 54.539062 63.851562 54.082031 C 64.175781 53.871094 64.351562 53.425781 64.367188 52.753906 C 64.375 52.605469 64.449219 52.53125 64.601562 52.535156 C 64.75 52.539062 64.824219 52.617188 64.820312 52.769531 C 64.796875 53.59375 64.554688 54.164062 64.097656 54.464844 C 63.835938 54.632812 63.527344 54.703125 63.1875 54.703125 Z M 63.1875 54.703125 " fill-opacity="1" fill-rule="nonzero"/><g clip-path="url(#16c458d462)"><path fill="#ffffff" d="M 51.867188 36.75 C 51.808594 36.972656 51.75 37.199219 51.695312 37.421875 C 50.167969 37.644531 48.421875 38.078125 47.898438 39.6875 C 47.273438 37.664062 50.183594 36.976562 51.867188 36.75 Z M 51.867188 36.75 " fill-opacity="0.6" fill-rule="nonzero"/></g><g clip-path="url(#64b9ea7812)"><path fill="#4f2020" d="M 50.765625 42.652344 C 50.730469 42.652344 50.695312 42.644531 50.660156 42.628906 C 49.601562 42.074219 48.800781 41.460938 48.28125 40.808594 C 47.761719 40.160156 47.550781 39.492188 47.667969 38.875 C 47.90625 37.628906 49.429688 36.769531 51.847656 36.523438 C 51.925781 36.515625 51.992188 36.542969 52.042969 36.601562 C 52.09375 36.664062 52.109375 36.730469 52.089844 36.808594 C 51.59375 38.664062 51.226562 40.546875 50.988281 42.457031 C 50.972656 42.585938 50.898438 42.652344 50.765625 42.652344 Z M 51.570312 37.011719 C 49.582031 37.273438 48.296875 37.988281 48.113281 38.960938 C 47.925781 39.949219 48.84375 41.097656 50.585938 42.070312 C 50.8125 40.367188 51.140625 38.679688 51.570312 37.011719 Z M 51.570312 37.011719 " fill-opacity="1" fill-rule="nonzero"/></g><g clip-path="url(#757b744365)"><path fill="#4f2020" d="M 78.90625 43.960938 C 77.027344 50.136719 70.816406 53.511719 64.898438 55.03125 C 64.4375 55.066406 63.988281 55.011719 63.554688 54.859375 C 59.773438 53.578125 55.964844 52.023438 53.3125 49.035156 C 51.699219 47.28125 50.476562 45.132812 50.070312 42.769531 C 50.023438 42.5 49.988281 42.222656 49.964844 41.949219 C 49.8125 40.242188 50.070312 38.484375 50.808594 36.9375 C 53.375 31.515625 61.339844 30.65625 64.625 36.3125 C 64.625 36.308594 64.628906 36.308594 64.628906 36.308594 C 67.175781 31.832031 73.136719 31.265625 76.714844 34.5625 C 79.238281 36.886719 79.863281 40.75 78.90625 43.960938 Z M 78.90625 43.960938 " fill-opacity="1" fill-rule="nonzero"/></g><g clip-path="url(#01f70c1cdf)"><path fill="#4f2020" d="M 64.359375 55.257812 C 64.339844 55.257812 64.320312 55.253906 64.300781 55.25 C 59.386719 53.945312 55.628906 51.902344 53.136719 49.175781 C 51.597656 47.574219 50.480469 45.507812 49.984375 43.371094 C 49.449219 41.054688 49.664062 38.796875 50.605469 36.839844 C 51.40625 35.074219 52.777344 33.730469 54.570312 32.957031 C 56.207031 32.25 58.082031 32.082031 59.84375 32.480469 C 61.480469 32.855469 62.875 33.679688 63.878906 34.863281 C 64.960938 36.144531 65.527344 37.804688 65.515625 39.675781 C 66.789062 40.621094 67.234375 42.300781 66.691406 44.121094 C 69.414062 45.777344 72.179688 47.757812 74.925781 50.003906 C 74.980469 50.046875 75.007812 50.101562 75.007812 50.171875 C 75.011719 50.242188 74.984375 50.300781 74.933594 50.347656 C 72.652344 52.414062 67.652344 54.953125 64.378906 55.253906 C 64.371094 55.257812 64.367188 55.257812 64.359375 55.257812 Z M 57.933594 32.722656 C 55.289062 32.722656 52.402344 33.960938 51.015625 37.03125 L 51.015625 37.035156 C 49.261719 40.671875 50.269531 45.535156 53.464844 48.863281 C 55.898438 51.523438 59.566406 53.519531 64.378906 54.800781 C 67.476562 54.496094 72.132812 52.160156 74.433594 50.183594 C 71.722656 47.980469 68.988281 46.039062 66.308594 44.417969 C 66.203125 44.355469 66.171875 44.265625 66.210938 44.152344 C 66.660156 42.792969 66.621094 40.980469 65.160156 39.980469 C 65.09375 39.933594 65.058594 39.871094 65.0625 39.789062 C 65.140625 35.636719 62.367188 33.519531 59.742188 32.925781 C 59.148438 32.789062 58.542969 32.722656 57.933594 32.722656 Z M 57.933594 32.722656 " fill-opacity="1" fill-rule="nonzero"/></g><g clip-path="url(#d58e58acbe)"><path fill="#ffffff" d="M 74.78125 50.179688 C 72.480469 52.261719 67.527344 54.734375 64.359375 55.03125 C 60.28125 53.953125 56.15625 52.140625 53.3125 49.035156 C 52.902344 48.40625 52.75 47.546875 52.699219 46.742188 C 51.15625 45.996094 50.277344 44.425781 50.070312 42.769531 C 50.058594 42.695312 50.042969 42.601562 50.035156 42.527344 C 49.757812 40.640625 49.988281 38.660156 50.808594 36.9375 C 54.085938 29.898438 65.449219 31.464844 65.285156 39.792969 C 66.730469 40.78125 66.960938 42.585938 66.421875 44.222656 C 69.347656 45.996094 72.128906 48.007812 74.78125 50.179688 Z M 74.78125 50.179688 " fill-opacity="1" fill-rule="nonzero"/></g><path fill="#8c8c8c" d="M 60.777344 37.738281 C 60.027344 38.503906 58.863281 38.808594 57.816406 38.660156 C 57.328125 37.75 55.804688 35.511719 56.90625 34.730469 C 57.957031 34.101562 59.269531 33.953125 60.371094 34.101562 C 61.550781 34.976562 61.871094 36.648438 60.777344 37.738281 Z M 60.777344 37.738281 " fill-opacity="1" fill-rule="nonzero"/><path fill="#f97e2b" d="M 72.054688 48.042969 C 71.214844 50.0625 68.601562 52.207031 66.472656 50.714844 C 65.507812 49.980469 65.5625 48.835938 66.097656 47.863281 C 66.519531 46.828125 65.753906 46.296875 64.773438 46.269531 C 65.449219 45.691406 66.027344 45.027344 66.507812 44.273438 C 68.414062 45.433594 70.261719 46.6875 72.054688 48.042969 Z M 72.054688 48.042969 " fill-opacity="1" fill-rule="nonzero"/><path fill="#f97e2b" d="M 64.589844 52.761719 C 64.507812 55.644531 61.738281 54.164062 60.082031 53.515625 C 60.046875 52.917969 60.589844 52.398438 61.179688 52.429688 C 61.621094 52.449219 62 52.738281 62.40625 52.910156 C 63.101562 53.207031 63.929688 53.144531 64.589844 52.761719 Z M 64.589844 52.761719 " fill-opacity="1" fill-rule="nonzero"/><path fill="#4f2020" d="M 67.097656 43.675781 C 67 43.96875 66.871094 44.246094 66.714844 44.511719 C 66.671875 44.578125 66.632812 44.644531 66.589844 44.707031 L 66.460938 44.898438 L 66.320312 45.082031 L 66.175781 45.257812 C 65.972656 45.488281 65.753906 45.699219 65.511719 45.890625 C 65.277344 46.082031 65.019531 46.242188 64.75 46.378906 C 64.703125 46.402344 64.667969 46.390625 64.636719 46.347656 C 64.609375 46.308594 64.613281 46.269531 64.652344 46.234375 C 64.863281 46.035156 65.070312 45.832031 65.265625 45.621094 C 65.457031 45.410156 65.640625 45.191406 65.808594 44.960938 L 65.933594 44.789062 L 66.050781 44.613281 L 66.167969 44.433594 C 66.203125 44.371094 66.242188 44.3125 66.277344 44.253906 C 66.421875 44.007812 66.554688 43.757812 66.679688 43.503906 C 66.742188 43.375 66.839844 43.335938 66.972656 43.390625 C 67.101562 43.445312 67.144531 43.542969 67.097656 43.675781 Z M 67.097656 43.675781 " fill-opacity="1" fill-rule="nonzero"/><path fill="#ffa86e" d="M 60.589844 37.199219 C 59.796875 36.652344 58.972656 36.160156 58.121094 35.71875 C 57.902344 35.5625 57.609375 35.648438 57.558594 35.929688 C 57.636719 37.785156 59.164062 38.429688 60.589844 37.199219 Z M 60.589844 37.199219 " fill-opacity="1" fill-rule="nonzero"/><g clip-path="url(#5dfdb148bb)"><path fill="#4f2020" d="M 74.042969 49.582031 C 71.679688 47.691406 69.214844 45.925781 66.632812 44.351562 C 66.578125 44.242188 66.527344 44.136719 66.476562 44.027344 C 66.960938 42.425781 66.660156 40.746094 65.285156 39.792969 C 65.285156 39.117188 65.207031 38.453125 65.058594 37.796875 C 65.082031 39.300781 65.296875 40.800781 65.683594 42.253906 C 64.910156 40.554688 64.871094 38.703125 64.796875 36.875 C 64.472656 35.726562 63.476562 34.730469 62.703125 34.070312 C 63.3125 34.855469 63.816406 35.699219 64.214844 36.609375 C 62.816406 39.90625 66.933594 42.726562 64.039062 46.15625 C 63.507812 46.859375 62.503906 47.375 61.707031 47.742188 C 59.167969 48.914062 53.011719 50.566406 53.167969 46.363281 C 51.570312 45.820312 50.582031 43.851562 50.035156 42.523438 C 50.042969 42.601562 50.058594 42.695312 50.070312 42.769531 C 50.421875 45.128906 51.730469 47.277344 53.3125 49.03125 C 53.3125 49.03125 53.3125 49.035156 53.3125 49.035156 C 56.15625 52.136719 60.285156 53.953125 64.359375 55.027344 C 67.519531 54.738281 72.484375 52.257812 74.78125 50.175781 C 74.535156 49.976562 74.289062 49.78125 74.042969 49.582031 Z M 70.402344 51.574219 C 69.121094 52.398438 67.296875 53.308594 65.78125 52.738281 C 64.613281 52.035156 65.078125 50.308594 64.308594 49.328125 C 64.449219 50.894531 63.886719 53.015625 61.921875 52.671875 C 61.03125 52.464844 60 52.164062 59.207031 51.613281 C 58.621094 51.207031 58.753906 50.300781 59.429688 50.082031 C 60.878906 49.617188 62.214844 48.800781 63.28125 47.710938 C 63.101562 47.757812 62.925781 47.8125 62.75 47.863281 C 64.25 47.15625 65.550781 46.007812 66.472656 44.617188 C 67.5 46.667969 68.085938 49.21875 70.300781 50.3125 C 70.796875 50.566406 70.855469 51.253906 70.402344 51.574219 Z M 70.402344 51.574219 " fill-opacity="0.2" fill-rule="nonzero"/></g><g clip-path="url(#09217a2042)"><path fill="#ffffff" d="M 79.394531 41.519531 C 79.164062 44.175781 77.972656 46.714844 76.210938 48.691406 C 75.691406 49.320312 74.867188 49.5 74.027344 49.570312 C 71.679688 49.765625 69.121094 48.589844 68.3125 46.277344 C 67.878906 45.710938 67.34375 45.175781 66.945312 44.542969 C 65.324219 42.109375 64.210938 38.949219 64.804688 36.039062 C 66.652344 33.371094 69.539062 31.914062 72.621094 32.539062 C 76.785156 33.121094 79.734375 37.359375 79.394531 41.519531 Z M 79.394531 41.519531 " fill-opacity="1" fill-rule="nonzero"/><path fill="#4f2020" d="M 79.394531 41.519531 C 78.902344 45.730469 76.328125 51.214844 71.367188 49.226562 C 69.988281 48.761719 68.746094 47.59375 68.289062 46.210938 C 66.070312 43.960938 63.574219 38.71875 65.058594 35.691406 C 64.484375 38.359375 66.421875 40.429688 68.488281 37.890625 C 69.386719 36.6875 69.828125 35.101562 71.035156 34.203125 C 71.652344 33.753906 72.578125 33.402344 72.679688 32.539062 C 73.363281 32.914062 73.203125 34.191406 72.839844 34.738281 C 71.59375 36.714844 71.292969 37.746094 70.550781 40.433594 C 70.0625 42.214844 68.144531 42.691406 67.277344 41.347656 C 65.285156 41.648438 67.128906 45.589844 69.871094 43.414062 C 67.65625 47.101562 76.171875 50.554688 76.355469 45.988281 C 79.152344 45.605469 79.785156 38.636719 78.066406 36.214844 C 79.03125 37.722656 79.53125 39.660156 79.394531 41.519531 Z M 79.394531 41.519531 " fill-opacity="0.2" fill-rule="nonzero"/></g><g clip-path="url(#196a85553b)"><path fill="#b55040" d="M 73.078125 33.40625 C 72.730469 34.5625 71.460938 34.277344 70.734375 36.839844 C 70.484375 37.730469 70.234375 38.621094 69.921875 39.492188 C 68.832031 42.523438 65.359375 41.28125 64.871094 39.703125 C 64.644531 38.597656 64.578125 37.476562 64.714844 36.390625 C 66.453125 33.011719 70.023438 32.003906 72.621094 32.539062 C 72.902344 32.753906 73.117188 33.050781 73.078125 33.40625 Z M 73.078125 33.40625 " fill-opacity="1" fill-rule="nonzero"/></g><g clip-path="url(#30aac92f55)"><path fill="#4f2020" d="M 64.359375 55.257812 C 64.339844 55.257812 64.320312 55.253906 64.300781 55.25 C 59.386719 53.945312 55.628906 51.902344 53.136719 49.175781 C 51.597656 47.570312 50.480469 45.507812 49.984375 43.371094 C 49.449219 41.054688 49.664062 38.796875 50.609375 36.839844 C 51.894531 34.128906 54.589844 32.363281 57.652344 32.234375 C 60.503906 32.113281 63.085938 33.46875 64.628906 35.875 C 65.824219 33.976562 67.695312 32.726562 69.933594 32.347656 C 72.378906 31.929688 74.847656 32.625 76.707031 34.253906 C 79.21875 36.433594 80.199219 40.328125 79.144531 43.949219 C 79.144531 43.949219 79.144531 43.949219 79.144531 43.953125 C 78.25 46.898438 76.25 49.539062 73.363281 51.585938 C 70.828125 53.382812 67.644531 54.6875 64.398438 55.253906 C 64.382812 55.253906 64.371094 55.257812 64.359375 55.257812 Z M 58 32.679688 C 57.890625 32.679688 57.78125 32.679688 57.667969 32.6875 C 54.777344 32.808594 52.226562 34.472656 51.015625 37.035156 C 49.261719 40.671875 50.269531 45.535156 53.464844 48.863281 C 55.894531 51.523438 59.5625 53.515625 64.367188 54.796875 C 69.746094 53.847656 76.710938 50.40625 78.714844 43.820312 C 79.71875 40.367188 78.792969 36.660156 76.414062 34.597656 C 74.65625 33.054688 72.320312 32.398438 70.007812 32.792969 C 67.78125 33.171875 65.941406 34.460938 64.824219 36.421875 C 64.78125 36.5 64.71875 36.539062 64.632812 36.539062 L 64.628906 36.539062 C 64.542969 36.539062 64.480469 36.5 64.4375 36.425781 C 63.0625 34.0625 60.675781 32.679688 58 32.679688 Z M 78.929688 43.886719 Z M 78.929688 43.886719 " fill-opacity="1" fill-rule="nonzero"/></g><path fill="#f97e2b" d="M 60.777344 37.738281 C 60.03125 38.503906 58.867188 38.808594 57.820312 38.660156 C 57.355469 37.824219 55.804688 35.4375 56.910156 34.730469 C 57.964844 34.105469 59.242188 33.953125 60.371094 34.101562 C 61.558594 34.996094 61.875 36.628906 60.777344 37.738281 Z M 60.777344 37.738281 " fill-opacity="1" fill-rule="nonzero"/><path fill="#ffffff" d="M 58.472656 34.496094 C 58.503906 34.582031 58.296875 34.738281 58.007812 34.839844 C 57.753906 34.929688 57.523438 34.949219 57.453125 34.894531 C 57.097656 35.121094 56.855469 35.421875 56.835938 35.828125 C 56.878906 36.28125 56.9375 36.730469 57.011719 37.179688 C 56.753906 36.449219 56.078125 35.300781 56.910156 34.730469 C 57.902344 34.136719 59.128906 33.972656 60.1875 34.082031 C 59.765625 34.183594 59.089844 34.285156 58.453125 34.46875 C 58.460938 34.476562 58.46875 34.484375 58.472656 34.496094 Z M 58.472656 34.496094 " fill-opacity="0.6" fill-rule="nonzero"/><path fill="#4f2020" d="M 60.777344 37.738281 C 60.03125 38.503906 58.867188 38.808594 57.820312 38.660156 C 57.277344 37.777344 56.777344 36.859375 56.5625 35.84375 C 57.644531 37.550781 60.28125 37.640625 61.464844 36 C 61.488281 36.632812 61.222656 37.277344 60.777344 37.738281 Z M 60.777344 37.738281 " fill-opacity="0.2" fill-rule="nonzero"/><path fill="#b55040" d="M 70.226562 42.046875 C 70.28125 38.902344 74.933594 38.902344 74.984375 42.046875 C 74.933594 45.191406 70.28125 45.191406 70.226562 42.046875 Z M 70.226562 42.046875 " fill-opacity="1" fill-rule="nonzero"/><path fill="#4f2020" d="M 57.839844 38.902344 C 57.628906 38.59375 57.410156 38.277344 57.210938 37.949219 C 57.007812 37.621094 56.820312 37.28125 56.65625 36.925781 C 56.496094 36.566406 56.355469 36.191406 56.308594 35.769531 C 56.285156 35.5625 56.285156 35.335938 56.363281 35.113281 C 56.382812 35.054688 56.402344 35 56.433594 34.949219 C 56.445312 34.921875 56.457031 34.894531 56.476562 34.867188 L 56.527344 34.792969 L 56.554688 34.757812 C 56.5625 34.746094 56.574219 34.734375 56.582031 34.726562 L 56.644531 34.660156 C 56.6875 34.617188 56.734375 34.585938 56.78125 34.546875 C 56.785156 34.546875 56.785156 34.542969 56.789062 34.542969 L 56.796875 34.539062 C 57.070312 34.375 57.367188 34.25 57.667969 34.148438 C 57.964844 34.050781 58.277344 33.984375 58.585938 33.941406 C 58.898438 33.898438 59.210938 33.882812 59.523438 33.894531 C 59.832031 33.90625 60.140625 33.945312 60.445312 34.011719 C 60.511719 34.019531 60.542969 34.058594 60.53125 34.125 C 60.523438 34.195312 60.484375 34.222656 60.417969 34.210938 C 60.121094 34.191406 59.824219 34.1875 59.523438 34.203125 C 59.230469 34.21875 58.9375 34.253906 58.648438 34.3125 C 58.359375 34.367188 58.078125 34.445312 57.804688 34.546875 C 57.53125 34.648438 57.269531 34.773438 57.023438 34.921875 L 57.035156 34.914062 C 56.917969 35 56.835938 35.113281 56.792969 35.253906 C 56.746094 35.390625 56.738281 35.554688 56.757812 35.726562 C 56.773438 35.894531 56.8125 36.066406 56.863281 36.242188 C 56.914062 36.417969 56.972656 36.589844 57.042969 36.757812 C 57.183594 37.101562 57.347656 37.4375 57.519531 37.773438 C 57.6875 38.109375 57.871094 38.441406 58.035156 38.792969 C 58.066406 38.855469 58.050781 38.90625 57.988281 38.941406 C 57.929688 38.972656 57.882812 38.960938 57.84375 38.90625 Z M 57.839844 38.902344 " fill-opacity="1" fill-rule="nonzero"/><path fill="#f08484" d="M 60.59375 37.199219 C 58.132812 39.25 56.984375 35.738281 57.847656 35.640625 C 58.828125 35.96875 59.710938 36.644531 60.59375 37.199219 Z M 60.59375 37.199219 " fill-opacity="1" fill-rule="nonzero"/><path fill="#4f2020" d="M 59.128906 38.058594 C 58.898438 38.058594 58.679688 38.015625 58.46875 37.921875 C 57.789062 37.628906 57.378906 36.90625 57.335938 35.9375 C 57.332031 35.921875 57.335938 35.902344 57.339844 35.886719 C 57.375 35.6875 57.5 35.53125 57.679688 35.457031 C 57.859375 35.382812 58.066406 35.410156 58.238281 35.523438 C 59.097656 35.96875 59.925781 36.464844 60.71875 37.011719 C 60.78125 37.054688 60.8125 37.113281 60.816406 37.1875 C 60.820312 37.261719 60.796875 37.324219 60.738281 37.371094 C 60.214844 37.824219 59.65625 38.058594 59.128906 38.058594 Z M 57.785156 35.949219 C 57.828125 36.71875 58.140625 37.285156 58.644531 37.507812 C 59.105469 37.707031 59.664062 37.597656 60.210938 37.210938 C 59.503906 36.742188 58.773438 36.308594 58.019531 35.921875 C 58.011719 35.914062 58 35.910156 57.992188 35.902344 C 57.945312 35.871094 57.890625 35.859375 57.847656 35.878906 C 57.8125 35.890625 57.792969 35.914062 57.785156 35.949219 Z M 57.785156 35.949219 " fill-opacity="1" fill-rule="nonzero"/><path fill="#4f2020" d="M 73.417969 49.816406 C 73.339844 49.816406 73.277344 49.78125 73.234375 49.71875 C 73.1875 49.652344 73.179688 49.582031 73.210938 49.507812 C 73.28125 49.320312 73.351562 49.140625 73.449219 48.847656 C 73.496094 48.703125 73.589844 48.65625 73.734375 48.703125 C 73.875 48.75 73.921875 48.847656 73.875 48.988281 C 73.78125 49.273438 73.71875 49.441406 73.628906 49.671875 C 73.59375 49.769531 73.523438 49.816406 73.417969 49.816406 Z M 73.417969 49.816406 " fill-opacity="1" fill-rule="nonzero"/><path fill="#4f2020" d="M 56.386719 48.675781 C 56.09375 48.675781 55.796875 48.554688 55.597656 48.265625 C 55.511719 48.144531 55.53125 48.039062 55.652344 47.953125 C 55.777344 47.867188 55.878906 47.886719 55.964844 48.007812 C 56.128906 48.242188 56.4375 48.261719 56.644531 48.164062 C 56.738281 48.121094 56.945312 47.988281 56.863281 47.691406 C 56.828125 47.570312 56.871094 47.480469 56.984375 47.425781 C 57.097656 47.371094 57.191406 47.398438 57.265625 47.503906 C 57.527344 47.878906 57.957031 47.921875 58.269531 47.84375 C 58.582031 47.761719 58.933594 47.511719 58.980469 47.054688 C 59 46.90625 59.082031 46.839844 59.226562 46.855469 C 59.375 46.871094 59.441406 46.953125 59.429688 47.101562 C 59.371094 47.667969 58.960938 48.128906 58.382812 48.28125 C 57.988281 48.382812 57.589844 48.320312 57.277344 48.125 C 57.199219 48.316406 57.046875 48.476562 56.835938 48.574219 C 56.695312 48.640625 56.542969 48.675781 56.386719 48.675781 Z M 56.386719 48.675781 " fill-opacity="1" fill-rule="nonzero"/><path fill="#4f2020" d="M 63.316406 47.644531 C 62.878906 47.960938 62.414062 48.234375 61.933594 48.476562 C 61.695312 48.601562 61.449219 48.710938 61.203125 48.820312 C 61.082031 48.871094 60.957031 48.925781 60.832031 48.976562 C 60.707031 49.023438 60.582031 49.074219 60.457031 49.121094 C 59.953125 49.308594 59.441406 49.472656 58.921875 49.613281 C 58.398438 49.757812 57.867188 49.863281 57.332031 49.9375 C 57.0625 49.976562 56.789062 50 56.515625 50.019531 L 56.3125 50.023438 C 56.242188 50.027344 56.175781 50.027344 56.105469 50.027344 L 55.898438 50.023438 L 55.691406 50.011719 C 55.417969 49.992188 55.140625 49.960938 54.863281 49.894531 L 54.761719 49.871094 L 54.660156 49.84375 L 54.558594 49.8125 C 54.523438 49.804688 54.488281 49.792969 54.457031 49.777344 L 54.253906 49.703125 L 54.058594 49.613281 C 53.800781 49.488281 53.550781 49.324219 53.339844 49.117188 C 53.128906 48.90625 52.957031 48.667969 52.828125 48.398438 C 52.699219 48.136719 52.617188 47.859375 52.5625 47.582031 C 52.507812 47.304688 52.484375 47.023438 52.480469 46.75 L 52.601562 46.941406 C 52.210938 46.746094 51.851562 46.5 51.523438 46.207031 C 51.195312 45.914062 50.914062 45.578125 50.679688 45.207031 C 50.449219 44.835938 50.265625 44.441406 50.128906 44.023438 C 50.058594 43.820312 50.003906 43.609375 49.957031 43.398438 C 49.933594 43.292969 49.910156 43.1875 49.894531 43.082031 L 49.867188 42.925781 L 49.855469 42.847656 L 49.851562 42.808594 C 49.847656 42.785156 49.84375 42.761719 49.84375 42.742188 C 49.835938 42.597656 49.902344 42.519531 50.042969 42.503906 C 50.183594 42.488281 50.265625 42.550781 50.289062 42.691406 L 50.292969 42.722656 C 50.292969 42.726562 50.292969 42.730469 50.292969 42.734375 L 50.300781 42.773438 L 50.3125 42.847656 L 50.335938 43 C 50.351562 43.105469 50.375 43.199219 50.394531 43.300781 C 50.4375 43.496094 50.492188 43.691406 50.554688 43.882812 C 50.679688 44.261719 50.847656 44.625 51.0625 44.964844 C 51.273438 45.300781 51.527344 45.605469 51.824219 45.871094 C 52.121094 46.136719 52.449219 46.359375 52.804688 46.539062 C 52.882812 46.578125 52.925781 46.640625 52.929688 46.726562 L 52.929688 46.734375 C 52.960938 47.242188 53.046875 47.75 53.269531 48.175781 C 53.378906 48.390625 53.519531 48.578125 53.695312 48.746094 C 53.863281 48.90625 54.066406 49.039062 54.285156 49.144531 C 54.5 49.253906 54.738281 49.320312 54.980469 49.378906 C 55.222656 49.433594 55.472656 49.464844 55.726562 49.480469 L 55.917969 49.492188 L 56.109375 49.492188 C 56.171875 49.492188 56.234375 49.492188 56.300781 49.488281 L 56.492188 49.484375 C 56.746094 49.46875 57.003906 49.449219 57.261719 49.414062 C 57.773438 49.34375 58.285156 49.238281 58.789062 49.109375 C 59.292969 48.980469 59.796875 48.828125 60.289062 48.648438 C 61.277344 48.296875 62.242188 47.890625 63.1875 47.425781 C 63.257812 47.394531 63.3125 47.410156 63.351562 47.476562 C 63.390625 47.542969 63.378906 47.597656 63.316406 47.644531 Z M 63.316406 47.644531 " fill-opacity="1" fill-rule="nonzero"/><path fill="#4f2020" d="M 64.332031 49.144531 C 64.390625 49.402344 64.457031 49.664062 64.515625 49.929688 C 64.574219 50.191406 64.632812 50.457031 64.683594 50.722656 C 64.730469 50.992188 64.773438 51.261719 64.804688 51.535156 C 64.832031 51.808594 64.855469 52.082031 64.855469 52.359375 C 64.859375 52.640625 64.847656 52.921875 64.796875 53.203125 C 64.746094 53.488281 64.667969 53.777344 64.503906 54.046875 C 64.421875 54.1875 64.316406 54.308594 64.191406 54.414062 C 64.066406 54.519531 63.921875 54.601562 63.765625 54.652344 C 63.457031 54.757812 63.144531 54.75 62.855469 54.710938 C 62.847656 54.707031 62.84375 54.707031 62.835938 54.707031 L 62.832031 54.707031 C 62.082031 54.519531 61.34375 54.289062 60.617188 54.023438 C 59.894531 53.75 59.1875 53.429688 58.503906 53.050781 C 57.824219 52.671875 57.171875 52.234375 56.585938 51.707031 C 56 51.183594 55.476562 50.574219 55.097656 49.871094 C 55.027344 49.742188 55.054688 49.640625 55.183594 49.566406 C 55.3125 49.496094 55.414062 49.523438 55.488281 49.648438 L 55.488281 49.652344 C 55.859375 50.285156 56.351562 50.847656 56.910156 51.335938 C 57.472656 51.820312 58.097656 52.238281 58.75 52.601562 C 59.40625 52.960938 60.097656 53.269531 60.800781 53.535156 C 61.507812 53.800781 62.226562 54.027344 62.957031 54.214844 L 62.933594 54.207031 C 63.171875 54.246094 63.40625 54.25 63.609375 54.179688 C 63.8125 54.117188 63.972656 53.980469 64.089844 53.792969 C 64.210938 53.601562 64.28125 53.363281 64.328125 53.121094 C 64.371094 52.867188 64.394531 52.613281 64.398438 52.359375 C 64.40625 51.839844 64.363281 51.308594 64.304688 50.78125 C 64.277344 50.515625 64.242188 50.25 64.207031 49.984375 C 64.175781 49.71875 64.140625 49.449219 64.121094 49.175781 C 64.117188 49.109375 64.148438 49.070312 64.214844 49.0625 C 64.28125 49.050781 64.320312 49.078125 64.332031 49.144531 Z M 64.332031 49.144531 " fill-opacity="1" fill-rule="nonzero"/><g clip-path="url(#9d7a9584ec)"><path fill="#ffffff" d="M 79.394531 41.519531 C 79.332031 42.929688 78.757812 44.542969 78.164062 45.792969 C 80.839844 39.292969 76.480469 33.261719 71.285156 33.078125 C 71.289062 33.085938 71.289062 33.09375 71.289062 33.097656 C 71.3125 33.320312 70.90625 33.539062 70.386719 33.589844 C 69.863281 33.640625 69.425781 33.503906 69.402344 33.285156 C 69.402344 33.28125 69.402344 33.273438 69.402344 33.269531 C 67.792969 33.660156 66.171875 34.648438 64.714844 36.382812 C 66.164062 33.449219 69.5625 31.921875 72.621094 32.539062 C 76.785156 33.121094 79.734375 37.359375 79.394531 41.519531 Z M 79.394531 41.519531 " fill-opacity="0.6" fill-rule="nonzero"/></g><path fill="#4f2020" d="M 62.011719 48.417969 C 61.386719 49.359375 60.960938 50.386719 60.738281 51.496094 C 60.722656 51.585938 60.671875 51.621094 60.582031 51.605469 C 60.496094 51.589844 60.457031 51.539062 60.472656 51.449219 C 60.640625 50.28125 61.027344 49.1875 61.628906 48.175781 C 61.707031 48.042969 61.8125 48.019531 61.941406 48.097656 C 62.070312 48.171875 62.09375 48.277344 62.015625 48.40625 C 62.015625 48.410156 62.015625 48.414062 62.011719 48.417969 Z M 62.011719 48.417969 " fill-opacity="1" fill-rule="nonzero"/><path fill="#4f2020" d="M 56.335938 46.945312 C 56.066406 47.238281 56.726562 47.5625 56.941406 47.644531 C 57.269531 47.757812 57.460938 47.132812 57.554688 46.898438 C 57.546875 46.4375 56.570312 46.730469 56.335938 46.945312 Z M 56.335938 46.945312 " fill-opacity="1" fill-rule="nonzero"/><g clip-path="url(#c4d3b63d57)"><path fill="#4f2020" d="M 73.542969 49.828125 C 71.359375 49.828125 68.921875 48.695312 68.101562 46.355469 L 68.050781 46.296875 C 67.609375 45.789062 67.152344 45.261719 66.765625 44.671875 C 64.929688 41.96875 64.117188 38.835938 64.53125 36.082031 C 64.539062 36.046875 64.550781 36.015625 64.570312 35.984375 C 65.570312 34.542969 66.769531 33.488281 68.132812 32.851562 C 69.546875 32.191406 71.070312 32.011719 72.667969 32.316406 C 74.652344 32.6875 76.476562 33.855469 77.808594 35.609375 C 79.144531 37.371094 79.789062 39.476562 79.621094 41.535156 C 79.480469 44.121094 77.230469 49.917969 74.050781 49.808594 C 73.882812 49.824219 73.710938 49.828125 73.542969 49.828125 Z M 64.96875 36.203125 C 64.589844 38.832031 65.378906 41.824219 67.136719 44.417969 C 67.511719 44.988281 67.957031 45.5 68.390625 46 L 68.46875 46.089844 C 68.488281 46.113281 68.503906 46.136719 68.515625 46.164062 C 69.308594 48.503906 71.886719 49.539062 74.023438 49.355469 C 74.035156 49.355469 74.042969 49.355469 74.054688 49.355469 C 74.082031 49.355469 74.109375 49.359375 74.136719 49.359375 C 75.734375 49.359375 76.980469 47.550781 77.585938 46.460938 C 78.445312 44.914062 79.097656 42.878906 79.171875 41.507812 C 79.171875 41.503906 79.171875 41.5 79.171875 41.5 C 79.496094 37.492188 76.480469 33.488281 72.582031 32.761719 C 69.621094 32.195312 66.917969 33.417969 64.96875 36.203125 Z M 64.96875 36.203125 " fill-opacity="1" fill-rule="nonzero"/></g><path fill="#4f2020" d="M 68.121094 46.429688 C 67.988281 46.078125 67.964844 45.6875 68.03125 45.320312 C 68.097656 44.957031 68.246094 44.605469 68.457031 44.304688 C 68.566406 44.15625 68.6875 44.019531 68.824219 43.894531 C 68.960938 43.769531 69.109375 43.664062 69.269531 43.578125 C 69.589844 43.402344 69.957031 43.316406 70.308594 43.339844 C 70.363281 43.34375 70.390625 43.371094 70.394531 43.425781 C 70.398438 43.480469 70.375 43.511719 70.320312 43.523438 C 70.007812 43.585938 69.726562 43.710938 69.46875 43.898438 C 69.34375 43.988281 69.230469 44.09375 69.128906 44.207031 C 69.023438 44.320312 68.933594 44.441406 68.851562 44.570312 C 68.691406 44.832031 68.585938 45.109375 68.53125 45.410156 C 68.476562 45.707031 68.484375 46.003906 68.550781 46.296875 L 68.550781 46.300781 C 68.585938 46.441406 68.535156 46.535156 68.398438 46.574219 C 68.257812 46.617188 68.164062 46.570312 68.117188 46.429688 Z M 68.121094 46.429688 " fill-opacity="1" fill-rule="nonzero"/><path fill="#4f2020" d="M 71.558594 41.839844 C 71.664062 42.042969 71.792969 42.21875 71.945312 42.367188 C 72.101562 42.511719 72.273438 42.632812 72.46875 42.722656 C 72.660156 42.816406 72.863281 42.871094 73.074219 42.894531 C 73.289062 42.917969 73.503906 42.902344 73.726562 42.855469 L 73.730469 42.855469 C 73.796875 42.839844 73.84375 42.863281 73.867188 42.925781 C 73.894531 42.988281 73.882812 43.039062 73.824219 43.074219 C 73.605469 43.226562 73.335938 43.304688 73.066406 43.3125 C 72.476562 43.332031 72 43.109375 71.628906 42.652344 C 71.457031 42.4375 71.339844 42.179688 71.3125 41.914062 C 71.304688 41.84375 71.335938 41.796875 71.402344 41.773438 C 71.472656 41.753906 71.523438 41.773438 71.554688 41.839844 Z M 71.558594 41.839844 " fill-opacity="1" fill-rule="nonzero"/><g clip-path="url(#fa0311649e)"><path fill="#4f2020" d="M 67.519531 41.574219 C 67.496094 41.574219 67.472656 41.574219 67.449219 41.574219 C 66.210938 41.546875 64.957031 40.738281 64.65625 39.773438 C 64.65625 39.765625 64.652344 39.757812 64.652344 39.75 C 64.390625 38.476562 64.351562 37.242188 64.53125 36.082031 C 64.535156 36.046875 64.550781 36.015625 64.570312 35.988281 C 66.613281 33.039062 69.566406 31.699219 72.667969 32.316406 C 72.703125 32.324219 72.730469 32.335938 72.757812 32.359375 C 73.15625 32.660156 73.351562 33.042969 73.304688 33.433594 C 73.304688 33.445312 73.300781 33.460938 73.296875 33.472656 C 73.136719 34 72.808594 34.269531 72.460938 34.550781 C 71.949219 34.964844 71.371094 35.433594 70.957031 36.902344 L 70.914062 37.042969 C 70.679688 37.878906 70.4375 38.738281 70.136719 39.570312 C 69.679688 40.847656 68.726562 41.574219 67.519531 41.574219 Z M 65.089844 39.648438 C 65.339844 40.421875 66.421875 41.097656 67.460938 41.121094 C 68.070312 41.136719 69.167969 40.929688 69.710938 39.417969 C 70.007812 38.597656 70.25 37.746094 70.480469 36.921875 L 70.523438 36.78125 C 70.976562 35.167969 71.640625 34.632812 72.175781 34.199219 C 72.5 33.933594 72.738281 33.742188 72.859375 33.363281 C 72.878906 33.089844 72.675781 32.871094 72.527344 32.75 C 69.644531 32.199219 66.894531 33.457031 64.96875 36.203125 C 64.804688 37.289062 64.847656 38.449219 65.089844 39.648438 Z M 73.082031 33.40625 Z M 73.082031 33.40625 " fill-opacity="1" fill-rule="nonzero"/></g><path fill="#4f2020" d="M 77.523438 46.546875 C 77.414062 46.546875 77.308594 46.519531 77.214844 46.464844 C 76.789062 46.230469 76.617188 45.53125 76.722656 45.027344 C 76.753906 44.878906 76.84375 44.820312 76.988281 44.851562 C 77.136719 44.882812 77.195312 44.972656 77.164062 45.121094 C 77.089844 45.484375 77.222656 45.953125 77.433594 46.070312 C 77.535156 46.128906 77.667969 46.078125 77.828125 45.921875 C 77.9375 45.816406 78.042969 45.820312 78.144531 45.929688 C 78.25 46.039062 78.25 46.144531 78.140625 46.25 C 77.902344 46.476562 77.691406 46.546875 77.523438 46.546875 Z M 77.523438 46.546875 " fill-opacity="1" fill-rule="nonzero"/><path fill="#4f2020" d="M 76.167969 48.953125 C 76.078125 48.953125 76.011719 48.914062 75.96875 48.835938 C 75.929688 48.757812 75.929688 48.679688 75.976562 48.605469 C 76.3125 48.074219 76.292969 47.761719 76.269531 47.328125 C 76.238281 46.8125 76.199219 46.167969 76.710938 44.984375 C 76.769531 44.847656 76.871094 44.808594 77.007812 44.867188 C 77.144531 44.929688 77.183594 45.027344 77.125 45.164062 C 76.65625 46.25 76.6875 46.808594 76.71875 47.300781 C 76.746094 47.761719 76.769531 48.195312 76.359375 48.847656 C 76.3125 48.917969 76.25 48.953125 76.167969 48.953125 Z M 76.167969 48.953125 " fill-opacity="1" fill-rule="nonzero"/><path fill="#4f2020" d="M 73.546875 46.183594 C 74.015625 46.519531 74.261719 46.808594 75.550781 47.339844 C 76.679688 47.804688 74.589844 49.804688 73.175781 49.117188 C 71.816406 48.480469 72.277344 45.40625 73.546875 46.183594 Z M 73.546875 46.183594 " fill-opacity="1" fill-rule="nonzero"/><path fill="#4f2020" d="M 69.636719 45.582031 C 69.628906 45.191406 70.238281 45.191406 70.234375 45.582031 C 70.238281 45.96875 69.628906 45.96875 69.636719 45.582031 Z M 69.636719 45.582031 " fill-opacity="1" fill-rule="nonzero"/><path fill="#4f2020" d="M 70.550781 46.273438 C 70.546875 45.882812 71.15625 45.882812 71.152344 46.273438 C 71.15625 46.664062 70.546875 46.664062 70.550781 46.273438 Z M 70.550781 46.273438 " fill-opacity="1" fill-rule="nonzero"/><path fill="#4f2020" d="M 69.714844 46.792969 C 69.710938 46.507812 70.15625 46.507812 70.152344 46.792969 C 70.15625 47.078125 69.710938 47.078125 69.714844 46.792969 Z M 69.714844 46.792969 " fill-opacity="1" fill-rule="nonzero"/><path fill="#4f2020" d="M 60.59375 37.199219 C 60.0625 37.597656 59.5625 37.890625 58.925781 37.835938 C 58.53125 37.285156 58.425781 36.582031 58.492188 35.914062 C 59.214844 36.304688 59.914062 36.734375 60.59375 37.199219 Z M 60.59375 37.199219 " fill-opacity="0.2" fill-rule="nonzero"/><path fill="#4f2020" d="M 73.078125 33.40625 C 72.730469 34.5625 71.460938 34.277344 70.734375 36.839844 C 70.484375 37.730469 70.234375 38.621094 69.921875 39.492188 C 68.832031 42.523438 65.359375 41.28125 64.871094 39.703125 C 64.644531 38.597656 64.578125 37.476562 64.714844 36.390625 C 64.777344 39.726562 68.296875 40.453125 69.390625 37.132812 C 70.683594 33.351562 71.808594 34.984375 73.035156 33.058594 C 73.078125 33.171875 73.09375 33.289062 73.078125 33.40625 Z M 73.078125 33.40625 " fill-opacity="0.2" fill-rule="nonzero"/><path fill="#4f2020" d="M 60.507812 42.988281 C 60.535156 43.296875 60.464844 43.617188 60.320312 43.898438 C 60.007812 44.5 59.515625 44.859375 58.851562 44.976562 C 58.542969 45.027344 58.21875 45.003906 57.9375 44.882812 C 57.867188 44.855469 57.839844 44.800781 57.855469 44.726562 C 57.871094 44.648438 57.914062 44.613281 57.992188 44.613281 L 57.996094 44.613281 C 58.261719 44.617188 58.507812 44.582031 58.742188 44.507812 C 58.976562 44.433594 59.191406 44.320312 59.390625 44.171875 C 59.585938 44.023438 59.753906 43.851562 59.894531 43.648438 C 60.035156 43.445312 60.140625 43.21875 60.214844 42.964844 L 60.214844 42.960938 C 60.238281 42.882812 60.289062 42.847656 60.371094 42.855469 C 60.453125 42.863281 60.5 42.90625 60.507812 42.988281 Z M 60.507812 42.988281 " fill-opacity="1" fill-rule="nonzero"/><path fill="#4f2020" d="M 54.738281 45.980469 C 54.683594 46.207031 54.550781 46.410156 54.375 46.570312 C 54 46.914062 53.558594 47.03125 53.0625 46.929688 C 52.832031 46.878906 52.613281 46.769531 52.453125 46.605469 C 52.410156 46.558594 52.402344 46.507812 52.4375 46.453125 C 52.472656 46.398438 52.519531 46.382812 52.582031 46.402344 L 52.585938 46.40625 C 52.757812 46.46875 52.9375 46.503906 53.121094 46.511719 C 53.296875 46.519531 53.46875 46.5 53.636719 46.453125 C 53.804688 46.402344 53.964844 46.332031 54.109375 46.234375 C 54.261719 46.132812 54.394531 46.011719 54.507812 45.871094 L 54.511719 45.867188 C 54.558594 45.8125 54.609375 45.800781 54.671875 45.832031 C 54.734375 45.863281 54.757812 45.914062 54.738281 45.980469 Z M 54.738281 45.980469 " fill-opacity="1" fill-rule="nonzero"/><g clip-path="url(#a4753bcea0)"><g clip-path="url(#94503170cf)"><g clip-path="url(#3438000c32)"><path fill="#ffffff" d="M 84.3125 47.578125 C 84.449219 47.757812 84.570312 47.949219 84.671875 48.152344 C 84.707031 48.207031 84.734375 48.25 84.765625 48.300781 C 85.191406 49 84.597656 50.191406 83.324219 51.210938 C 83.375 51.324219 83.382812 51.4375 83.347656 51.554688 C 83.316406 51.671875 83.246094 51.757812 83.144531 51.820312 L 82.308594 52.335938 C 82.113281 52.453125 81.929688 52.4375 81.753906 52.289062 C 81.730469 52.265625 81.707031 52.242188 81.683594 52.214844 C 81.535156 52.285156 81.382812 52.34375 81.234375 52.398438 L 81.214844 52.367188 C 81.195312 52.335938 81.167969 52.324219 81.132812 52.34375 L 81.105469 52.359375 C 81.097656 52.363281 81.085938 52.367188 81.082031 52.375 C 81.070312 52.375 81.058594 52.375 81.050781 52.382812 L 81.03125 52.394531 C 81.011719 52.398438 81 52.410156 80.992188 52.429688 C 80.984375 52.445312 80.984375 52.464844 80.992188 52.480469 L 80.886719 52.507812 L 81.003906 52.703125 L 81.050781 52.675781 C 81.066406 52.664062 81.082031 52.652344 81.101562 52.644531 L 81.113281 52.664062 C 81.136719 52.703125 81.164062 52.710938 81.199219 52.679688 C 81.207031 52.675781 81.210938 52.675781 81.214844 52.671875 L 81.226562 52.664062 L 81.234375 52.660156 C 81.242188 52.664062 81.253906 52.664062 81.261719 52.664062 L 81.300781 52.660156 C 81.308594 52.65625 81.3125 52.652344 81.320312 52.644531 C 81.332031 52.640625 81.339844 52.628906 81.34375 52.617188 C 81.347656 52.601562 81.351562 52.585938 81.34375 52.570312 C 81.707031 52.566406 81.976562 52.726562 82.160156 53.046875 C 82.421875 53.472656 82.347656 54 81.992188 54.214844 C 81.640625 54.433594 81.136719 54.261719 80.875 53.832031 C 80.671875 53.523438 80.65625 53.207031 80.824219 52.886719 L 80.636719 52.578125 C 79.578125 52.835938 78.761719 52.683594 78.441406 52.167969 C 78.410156 52.117188 78.382812 52.066406 78.335938 52.011719 C 78.203125 51.832031 78.09375 51.644531 78 51.441406 C 77.988281 51.417969 77.992188 51.394531 78.007812 51.375 C 78.027344 51.351562 78.050781 51.347656 78.078125 51.359375 C 78.15625 51.386719 78.234375 51.410156 78.316406 51.425781 L 78.382812 51.441406 C 78.421875 51.449219 78.460938 51.453125 78.5 51.460938 L 78.601562 51.46875 C 79.4375 51.515625 80.242188 51.378906 81.011719 51.0625 L 81.039062 51.042969 C 81.039062 51.003906 81.046875 50.964844 81.054688 50.925781 C 81.082031 50.796875 81.152344 50.699219 81.261719 50.632812 L 82.09375 50.121094 C 82.207031 50.054688 82.324219 50.035156 82.453125 50.070312 C 82.492188 50.078125 82.527344 50.09375 82.5625 50.113281 C 83.214844 49.566406 83.714844 48.898438 84.058594 48.113281 C 84.128906 47.953125 84.175781 47.785156 84.203125 47.609375 C 84.207031 47.582031 84.222656 47.5625 84.246094 47.558594 C 84.273438 47.550781 84.296875 47.558594 84.3125 47.578125 Z M 84.558594 48.207031 C 84.480469 48.054688 84.394531 47.914062 84.296875 47.777344 C 84.152344 48.511719 83.46875 49.523438 82.617188 50.242188 L 82.601562 50.253906 C 82.636719 50.28125 82.660156 50.3125 82.683594 50.347656 L 82.796875 50.53125 C 82.804688 50.542969 82.808594 50.558594 82.804688 50.570312 L 82.882812 50.523438 C 82.875 50.523438 82.871094 50.519531 82.863281 50.515625 C 82.84375 50.496094 82.835938 50.472656 82.84375 50.445312 C 82.863281 50.382812 82.902344 50.335938 82.953125 50.304688 C 83.027344 50.269531 83.105469 50.265625 83.183594 50.292969 C 83.265625 50.320312 83.324219 50.371094 83.363281 50.445312 C 83.414062 50.515625 83.429688 50.589844 83.417969 50.675781 C 83.40625 50.757812 83.367188 50.824219 83.304688 50.875 C 83.25 50.90625 83.191406 50.917969 83.128906 50.90625 C 83.097656 50.902344 83.082031 50.886719 83.074219 50.855469 C 83.074219 50.851562 83.074219 50.84375 83.074219 50.835938 L 82.996094 50.886719 C 83.011719 50.890625 83.019531 50.898438 83.027344 50.910156 L 83.183594 51.164062 C 83.1875 51.15625 83.191406 51.148438 83.199219 51.144531 C 84.457031 50.148438 85.050781 49.007812 84.65625 48.363281 C 84.621094 48.308594 84.589844 48.257812 84.558594 48.207031 Z M 83.101562 50.609375 C 83.082031 50.578125 83.054688 50.570312 83.023438 50.589844 L 82.535156 50.890625 C 82.503906 50.910156 82.496094 50.9375 82.515625 50.96875 C 82.539062 51.003906 82.566406 51.011719 82.597656 50.992188 L 83.085938 50.691406 C 83.117188 50.671875 83.125 50.644531 83.101562 50.609375 Z M 83.105469 51.273438 L 82.960938 51.03125 L 82.933594 51.046875 L 83.082031 51.289062 C 83.164062 51.425781 83.140625 51.53125 83.007812 51.609375 L 82.175781 52.121094 C 82.046875 52.199219 81.941406 52.171875 81.859375 52.039062 L 81.332031 51.179688 C 81.25 51.042969 81.273438 50.9375 81.402344 50.855469 L 82.234375 50.347656 C 82.363281 50.265625 82.472656 50.292969 82.554688 50.429688 L 82.636719 50.5625 L 82.664062 50.546875 L 82.578125 50.414062 C 82.542969 50.351562 82.488281 50.308594 82.414062 50.292969 C 82.34375 50.273438 82.28125 50.285156 82.21875 50.320312 L 81.386719 50.832031 C 81.324219 50.867188 81.285156 50.921875 81.269531 50.992188 C 81.253906 51.066406 81.265625 51.132812 81.304688 51.195312 L 81.832031 52.054688 C 81.871094 52.117188 81.925781 52.15625 81.996094 52.175781 C 82.066406 52.195312 82.132812 52.183594 82.191406 52.148438 L 83.023438 51.636719 C 83.085938 51.601562 83.125 51.546875 83.140625 51.476562 C 83.15625 51.402344 83.144531 51.335938 83.105469 51.273438 Z M 82.472656 50.785156 L 82.597656 50.710938 C 82.585938 50.703125 82.574219 50.695312 82.566406 50.683594 L 82.449219 50.492188 C 82.410156 50.429688 82.359375 50.417969 82.300781 50.453125 L 81.46875 50.964844 C 81.40625 51 81.394531 51.050781 81.433594 51.113281 L 81.953125 51.960938 C 81.957031 51.945312 81.964844 51.929688 81.980469 51.921875 C 82.304688 51.753906 82.617188 51.5625 82.914062 51.351562 C 82.929688 51.339844 82.945312 51.335938 82.964844 51.34375 L 82.789062 51.058594 C 82.785156 51.046875 82.78125 51.03125 82.78125 51.019531 L 82.660156 51.09375 C 82.554688 51.171875 82.46875 51.152344 82.398438 51.039062 C 82.328125 50.925781 82.351562 50.839844 82.46875 50.78125 Z M 81.152344 51.140625 L 81.136719 51.152344 L 81.097656 51.175781 L 81.066406 51.191406 C 80.035156 51.59375 78.875 51.726562 78.167969 51.523438 C 78.222656 51.628906 78.285156 51.726562 78.351562 51.824219 C 78.355469 51.78125 78.375 51.75 78.410156 51.726562 C 78.484375 51.679688 78.597656 51.738281 78.675781 51.863281 C 78.75 51.992188 78.746094 52.113281 78.667969 52.160156 C 78.644531 52.175781 78.621094 52.179688 78.589844 52.175781 C 78.914062 52.589844 79.660156 52.6875 80.625 52.449219 C 80.621094 52.378906 80.648438 52.324219 80.703125 52.289062 L 80.722656 52.277344 C 80.757812 52.257812 80.785156 52.261719 80.808594 52.296875 L 80.84375 52.359375 C 80.851562 52.367188 80.855469 52.375 80.859375 52.382812 C 81.128906 52.300781 81.390625 52.199219 81.648438 52.085938 L 81.679688 52.066406 C 81.6875 52.0625 81.695312 52.058594 81.703125 52.058594 L 81.210938 51.253906 C 81.183594 51.21875 81.164062 51.179688 81.152344 51.140625 Z M 82.058594 53.121094 C 81.832031 52.753906 81.40625 52.601562 81.109375 52.78125 C 81.082031 52.796875 81.058594 52.816406 81.039062 52.835938 L 81.054688 52.863281 C 81.054688 52.871094 81.058594 52.875 81.0625 52.878906 L 81.078125 52.867188 C 81.113281 52.847656 81.140625 52.855469 81.164062 52.890625 L 81.195312 52.941406 C 81.21875 52.980469 81.210938 53.007812 81.175781 53.03125 L 81.160156 53.039062 C 81.0625 53.089844 80.980469 53.070312 80.914062 52.984375 C 80.785156 53.253906 80.804688 53.519531 80.972656 53.777344 C 81.199219 54.148438 81.625 54.300781 81.921875 54.117188 C 82.21875 53.9375 82.285156 53.492188 82.058594 53.125 Z M 78.570312 51.933594 C 78.546875 51.890625 78.515625 51.863281 78.472656 51.84375 C 78.472656 51.886719 78.488281 51.929688 78.511719 51.964844 C 78.535156 52.007812 78.566406 52.039062 78.605469 52.058594 C 78.605469 52.011719 78.59375 51.96875 78.566406 51.929688 Z M 78.570312 51.933594 " fill-opacity="1" fill-rule="nonzero"/></g></g></g><g clip-path="url(#41c2ae2541)"><g clip-path="url(#77b2dd954d)"><g clip-path="url(#721cba5194)"><path fill="#ffffff" d="M 84.191406 47.425781 C 84.207031 47.441406 84.214844 47.457031 84.210938 47.480469 L 84.195312 47.613281 C 84.171875 47.792969 84.128906 47.964844 84.058594 48.128906 C 84.050781 48.152344 84.03125 48.164062 84.003906 48.164062 C 83.308594 48.191406 82.085938 48.472656 80.945312 49.171875 C 79.800781 49.871094 78.996094 50.832031 78.652344 51.441406 C 78.648438 51.453125 78.640625 51.460938 78.632812 51.464844 C 78.621094 51.472656 78.609375 51.472656 78.59375 51.472656 L 78.492188 51.460938 L 78.375 51.441406 L 78.308594 51.429688 C 78.230469 51.414062 78.152344 51.390625 78.078125 51.359375 L 77.953125 51.3125 C 77.933594 51.304688 77.917969 51.292969 77.914062 51.269531 C 77.710938 50.554688 78.777344 49.269531 80.394531 48.277344 C 82.015625 47.285156 83.648438 46.917969 84.191406 47.425781 Z M 84.078125 47.589844 L 84.085938 47.496094 C 83.5625 47.066406 81.992188 47.445312 80.460938 48.382812 C 78.933594 49.320312 77.878906 50.546875 78.023438 51.207031 L 78.113281 51.242188 C 78.261719 51.296875 78.410156 51.328125 78.5625 51.34375 C 79.160156 50.402344 79.929688 49.640625 80.878906 49.0625 C 81.824219 48.480469 82.851562 48.140625 83.960938 48.039062 C 84.019531 47.894531 84.058594 47.746094 84.078125 47.589844 Z M 84.078125 47.589844 " fill-opacity="1" fill-rule="nonzero"/></g></g></g><g clip-path="url(#3cb3f4412d)"><g clip-path="url(#8553884142)"><g clip-path="url(#780626cbe0)"><path fill="#ffffff" d="M 84.339844 48.191406 C 84.417969 48.144531 84.527344 48.203125 84.605469 48.328125 C 84.683594 48.453125 84.683594 48.578125 84.605469 48.625 C 84.53125 48.667969 84.417969 48.613281 84.34375 48.488281 C 84.265625 48.363281 84.265625 48.238281 84.339844 48.191406 Z M 84.5 48.390625 C 84.480469 48.351562 84.449219 48.320312 84.410156 48.300781 C 84.40625 48.34375 84.417969 48.386719 84.445312 48.425781 C 84.46875 48.464844 84.5 48.496094 84.539062 48.515625 C 84.539062 48.472656 84.527344 48.429688 84.503906 48.394531 Z M 84.5 48.390625 " fill-opacity="1" fill-rule="nonzero"/></g></g></g><g clip-path="url(#25195da75a)"><g clip-path="url(#68a931e30d)"><g clip-path="url(#e2e7d7204b)"><path fill="#ffffff" d="M 84.113281 48.851562 C 84.203125 48.796875 84.339844 48.867188 84.433594 49.019531 C 84.523438 49.167969 84.527344 49.324219 84.433594 49.378906 C 84.34375 49.433594 84.207031 49.363281 84.117188 49.210938 C 84.023438 49.0625 84.019531 48.90625 84.113281 48.851562 Z M 84.328125 49.082031 C 84.265625 48.976562 84.191406 48.949219 84.175781 48.957031 C 84.164062 48.964844 84.15625 49.042969 84.21875 49.148438 C 84.285156 49.253906 84.355469 49.28125 84.371094 49.273438 C 84.382812 49.265625 84.390625 49.183594 84.328125 49.082031 Z M 84.328125 49.082031 " fill-opacity="1" fill-rule="nonzero"/></g></g></g><g clip-path="url(#b5b3d26e9b)"><g clip-path="url(#693bc0dd60)"><g clip-path="url(#933945c612)"><path fill="#ffffff" d="M 83.617188 49.609375 C 83.71875 49.546875 83.875 49.617188 83.960938 49.761719 C 84.050781 49.90625 84.042969 50.074219 83.941406 50.140625 C 83.835938 50.203125 83.679688 50.132812 83.59375 49.988281 C 83.503906 49.84375 83.515625 49.671875 83.617188 49.609375 Z M 83.859375 49.824219 C 83.804688 49.734375 83.71875 49.695312 83.679688 49.714844 C 83.644531 49.738281 83.640625 49.832031 83.699219 49.925781 C 83.753906 50.015625 83.835938 50.054688 83.875 50.03125 C 83.910156 50.007812 83.914062 49.914062 83.859375 49.824219 Z M 83.859375 49.824219 " fill-opacity="1" fill-rule="nonzero"/></g></g></g><g clip-path="url(#f19125f427)"><g clip-path="url(#b231ddf773)"><g clip-path="url(#0e2730d5ca)"><path fill="#ffffff" d="M 80.894531 51.464844 C 80.960938 51.433594 81.035156 51.429688 81.105469 51.457031 C 81.179688 51.480469 81.234375 51.53125 81.269531 51.601562 C 81.316406 51.664062 81.335938 51.734375 81.324219 51.8125 C 81.316406 51.886719 81.28125 51.949219 81.21875 51.996094 C 81.148438 52.03125 81.078125 52.035156 81.003906 52.007812 C 80.933594 51.980469 80.878906 51.933594 80.84375 51.859375 C 80.796875 51.796875 80.777344 51.726562 80.789062 51.652344 C 80.796875 51.574219 80.832031 51.511719 80.894531 51.464844 Z M 81.164062 51.664062 C 81.109375 51.578125 81.015625 51.539062 80.960938 51.574219 C 80.902344 51.609375 80.894531 51.710938 80.949219 51.796875 C 81 51.882812 81.09375 51.921875 81.152344 51.886719 C 81.210938 51.851562 81.214844 51.75 81.164062 51.664062 Z M 81.164062 51.664062 " fill-opacity="1" fill-rule="nonzero"/></g></g></g><g clip-path="url(#4651c9877c)"><g clip-path="url(#bdc0fbe644)"><g clip-path="url(#81f81c6276)"><path fill="#ffffff" d="M 81.230469 52.394531 L 81.347656 52.582031 C 81.3125 52.585938 81.28125 52.589844 81.25 52.597656 L 81.144531 52.425781 C 81.171875 52.417969 81.203125 52.40625 81.230469 52.394531 Z M 81.230469 52.394531 " fill-opacity="1" fill-rule="nonzero"/><path fill="#ffffff" d="M 81.214844 52.367188 L 81.230469 52.394531 C 81.207031 52.410156 81.171875 52.417969 81.144531 52.425781 L 81.132812 52.40625 C 81.121094 52.386719 81.105469 52.378906 81.082031 52.375 C 81.089844 52.371094 81.097656 52.363281 81.105469 52.359375 L 81.136719 52.34375 C 81.167969 52.328125 81.195312 52.335938 81.214844 52.367188 Z M 81.214844 52.367188 " fill-opacity="1" fill-rule="nonzero"/><path fill="#ffffff" d="M 81.347656 52.582031 C 81.351562 52.601562 81.351562 52.617188 81.34375 52.632812 C 81.339844 52.644531 81.332031 52.652344 81.324219 52.660156 C 81.316406 52.664062 81.308594 52.667969 81.300781 52.671875 L 81.265625 52.675781 C 81.253906 52.679688 81.246094 52.675781 81.238281 52.671875 C 81.246094 52.667969 81.25 52.65625 81.253906 52.648438 C 81.257812 52.632812 81.257812 52.617188 81.25 52.601562 C 81.28125 52.59375 81.3125 52.585938 81.347656 52.582031 Z M 81.347656 52.582031 " fill-opacity="1" fill-rule="nonzero"/><path fill="#ffffff" d="M 81.144531 52.425781 L 81.25 52.597656 C 81.226562 52.601562 81.203125 52.605469 81.183594 52.613281 L 81.082031 52.445312 Z M 81.144531 52.425781 " fill-opacity="1" fill-rule="nonzero"/><path fill="#ffffff" d="M 81.132812 52.40625 L 81.144531 52.425781 L 81.082031 52.445312 C 81.070312 52.429688 81.070312 52.414062 81.074219 52.394531 L 81.082031 52.378906 C 81.105469 52.378906 81.121094 52.390625 81.132812 52.40625 Z M 81.132812 52.40625 " fill-opacity="1" fill-rule="nonzero"/><path fill="#ffffff" d="M 81.25 52.597656 C 81.253906 52.613281 81.257812 52.628906 81.25 52.644531 C 81.246094 52.652344 81.242188 52.660156 81.234375 52.667969 C 81.21875 52.664062 81.207031 52.65625 81.199219 52.644531 L 81.183594 52.617188 C 81.207031 52.609375 81.226562 52.601562 81.25 52.597656 Z M 81.25 52.597656 " fill-opacity="1" fill-rule="nonzero"/></g></g></g><g clip-path="url(#f29078123e)"><g clip-path="url(#7f38a5bcd6)"><g clip-path="url(#12e17cfd6d)"><path fill="#ffffff" d="M 81.082031 52.375 L 81.070312 52.394531 C 81.066406 52.410156 81.070312 52.429688 81.078125 52.445312 L 80.992188 52.476562 C 80.980469 52.457031 80.980469 52.441406 80.988281 52.425781 C 80.996094 52.40625 81.007812 52.394531 81.03125 52.386719 L 81.046875 52.378906 C 81.058594 52.375 81.070312 52.375 81.082031 52.375 Z M 81.082031 52.375 " fill-opacity="1" fill-rule="nonzero"/></g></g></g><g clip-path="url(#cc5eb32fee)"><g clip-path="url(#2ad75ab541)"><g clip-path="url(#8becbb4259)"><path fill="#ffffff" d="M 81.234375 52.667969 L 81.226562 52.675781 L 81.214844 52.679688 C 81.207031 52.683594 81.203125 52.6875 81.199219 52.691406 C 81.164062 52.71875 81.132812 52.710938 81.109375 52.671875 L 81.097656 52.648438 C 81.125 52.636719 81.152344 52.625 81.183594 52.613281 L 81.199219 52.644531 C 81.210938 52.65625 81.21875 52.664062 81.234375 52.667969 Z M 81.234375 52.667969 " fill-opacity="1" fill-rule="nonzero"/></g></g></g><g clip-path="url(#8822081197)"><g clip-path="url(#37c43b5d99)"><g clip-path="url(#1ec9058548)"><path fill="#ffffff" d="M 81.082031 52.445312 L 81.183594 52.617188 C 81.15625 52.625 81.125 52.636719 81.097656 52.652344 L 80.992188 52.476562 Z M 81.082031 52.445312 " fill-opacity="1" fill-rule="nonzero"/></g></g></g><g clip-path="url(#40d3e04cea)"><g clip-path="url(#15b577fa5e)"><g clip-path="url(#c880e78945)"><path fill="#ffffff" d="M 79.996094 51.726562 C 80.101562 51.664062 80.253906 51.734375 80.34375 51.878906 C 80.433594 52.023438 80.425781 52.191406 80.320312 52.253906 C 80.21875 52.316406 80.0625 52.246094 79.976562 52.105469 C 79.886719 51.960938 79.894531 51.789062 79.996094 51.726562 Z M 80.242188 51.941406 C 80.183594 51.851562 80.101562 51.808594 80.0625 51.832031 C 80.027344 51.855469 80.023438 51.949219 80.078125 52.039062 C 80.132812 52.132812 80.21875 52.171875 80.257812 52.148438 C 80.296875 52.125 80.296875 52.03125 80.242188 51.941406 Z M 80.242188 51.941406 " fill-opacity="1" fill-rule="nonzero"/></g></g></g><g clip-path="url(#ea10efb60c)"><g clip-path="url(#fba245fec1)"><g clip-path="url(#e5767d6f75)"><path fill="#ffffff" d="M 79.09375 51.824219 C 79.1875 51.769531 79.324219 51.839844 79.417969 51.992188 C 79.507812 52.140625 79.507812 52.296875 79.417969 52.351562 C 79.328125 52.40625 79.195312 52.339844 79.097656 52.183594 C 79.003906 52.03125 79.003906 51.878906 79.09375 51.824219 Z M 79.3125 52.054688 C 79.25 51.949219 79.175781 51.921875 79.160156 51.929688 C 79.148438 51.9375 79.140625 52.015625 79.203125 52.121094 C 79.269531 52.222656 79.339844 52.253906 79.355469 52.246094 C 79.367188 52.238281 79.375 52.15625 79.3125 52.054688 Z M 79.3125 52.054688 " fill-opacity="1" fill-rule="nonzero"/></g></g></g><g clip-path="url(#b19dc03e47)"><path fill="#ffffff" d="M 48.25 49.296875 C 48.289062 49.925781 48.097656 50.46875 47.675781 50.933594 C 47.472656 51.160156 47.230469 51.335938 46.953125 51.464844 C 46.671875 51.59375 46.378906 51.660156 46.074219 51.667969 L 46.023438 51.667969 C 45.734375 51.667969 45.457031 51.613281 45.1875 51.507812 C 44.902344 51.394531 44.652344 51.230469 44.433594 51.015625 C 44.21875 50.800781 44.050781 50.550781 43.9375 50.269531 C 43.773438 49.851562 43.734375 49.421875 43.828125 48.984375 C 43.921875 48.542969 44.128906 48.167969 44.445312 47.851562 C 44.648438 47.652344 44.878906 47.492188 45.140625 47.382812 C 45.40625 47.269531 45.679688 47.210938 45.964844 47.203125 L 46.023438 47.203125 C 46.5625 47.207031 47.039062 47.378906 47.453125 47.726562 L 47.476562 47.726562 L 47.484375 47.734375 C 47.503906 47.757812 47.523438 47.78125 47.542969 47.804688 C 47.976562 48.207031 48.210938 48.707031 48.25 49.296875 Z M 48.011719 49.296875 C 48.015625 49.085938 47.988281 48.878906 47.925781 48.675781 C 47.925781 48.753906 47.921875 48.832031 47.910156 48.910156 C 47.894531 49.015625 47.867188 49.117188 47.828125 49.214844 C 47.789062 49.324219 47.730469 49.421875 47.652344 49.507812 C 47.613281 49.550781 47.574219 49.585938 47.53125 49.621094 C 47.488281 49.65625 47.445312 49.6875 47.398438 49.714844 C 47.375 49.730469 47.351562 49.742188 47.324219 49.753906 C 47.25 49.789062 47.171875 49.816406 47.089844 49.835938 C 47.019531 49.851562 46.945312 49.859375 46.875 49.863281 C 46.796875 49.863281 46.71875 49.859375 46.640625 49.847656 C 46.589844 49.835938 46.53125 49.828125 46.472656 49.8125 C 46.296875 49.765625 46.128906 49.703125 45.964844 49.628906 L 45.867188 49.585938 L 45.699219 49.511719 L 45.667969 49.496094 L 45.523438 49.441406 C 45.230469 49.328125 44.957031 49.308594 44.796875 49.386719 C 44.703125 49.433594 44.636719 49.503906 44.597656 49.597656 C 44.546875 49.71875 44.523438 49.847656 44.527344 49.980469 C 44.535156 50.285156 44.625 50.5625 44.800781 50.8125 C 44.816406 50.839844 44.835938 50.863281 44.855469 50.886719 C 44.898438 50.917969 44.941406 50.949219 44.988281 50.972656 L 45.035156 51 C 45.066406 51.019531 45.09375 51.035156 45.125 51.046875 C 45.148438 51.0625 45.167969 51.070312 45.191406 51.078125 L 45.269531 51.113281 L 45.417969 51.167969 C 45.441406 51.175781 45.46875 51.179688 45.496094 51.191406 L 45.566406 51.207031 L 45.648438 51.222656 L 45.722656 51.238281 C 45.75 51.242188 45.777344 51.246094 45.804688 51.246094 L 45.878906 51.253906 L 45.957031 51.253906 C 45.996094 51.253906 46.027344 51.253906 46.066406 51.253906 C 46.320312 51.25 46.566406 51.195312 46.804688 51.09375 C 47.039062 50.992188 47.25 50.851562 47.429688 50.667969 C 47.609375 50.488281 47.75 50.277344 47.851562 50.042969 C 47.953125 49.804688 48.007812 49.558594 48.011719 49.300781 Z M 47.488281 48.808594 C 47.535156 48.664062 47.554688 48.515625 47.554688 48.367188 C 47.554688 48.210938 47.527344 48.0625 47.46875 47.921875 C 47.457031 47.898438 47.445312 47.878906 47.433594 47.855469 C 47.265625 47.6875 47.074219 47.554688 46.855469 47.449219 L 46.765625 47.410156 L 46.671875 47.378906 L 46.644531 47.367188 L 46.578125 47.355469 L 46.546875 47.355469 L 46.484375 47.324219 L 46.449219 47.324219 L 46.378906 47.304688 L 46.34375 47.304688 C 46.324219 47.300781 46.300781 47.296875 46.277344 47.296875 L 46.246094 47.296875 L 46.183594 47.277344 L 46.046875 47.277344 C 46.019531 47.277344 45.996094 47.277344 45.96875 47.277344 C 45.886719 47.28125 45.804688 47.289062 45.722656 47.300781 C 45.535156 47.324219 45.351562 47.375 45.179688 47.453125 C 44.929688 47.570312 44.714844 47.726562 44.527344 47.929688 C 44.152344 48.347656 43.984375 48.835938 44.023438 49.398438 C 44.023438 49.449219 44.03125 49.496094 44.039062 49.550781 C 44.050781 49.496094 44.0625 49.445312 44.082031 49.398438 C 44.121094 49.289062 44.175781 49.1875 44.25 49.09375 C 44.328125 48.996094 44.417969 48.917969 44.527344 48.859375 C 44.566406 48.835938 44.605469 48.816406 44.648438 48.800781 C 44.789062 48.75 44.933594 48.722656 45.082031 48.722656 L 45.164062 48.722656 C 45.359375 48.738281 45.546875 48.78125 45.726562 48.847656 C 45.871094 48.902344 45.996094 48.960938 46.117188 49.015625 L 46.207031 49.058594 C 46.34375 49.125 46.484375 49.1875 46.628906 49.234375 C 46.746094 49.277344 46.867188 49.292969 46.992188 49.285156 C 47.050781 49.277344 47.101562 49.261719 47.152344 49.238281 C 47.183594 49.230469 47.207031 49.214844 47.234375 49.199219 C 47.257812 49.183594 47.285156 49.164062 47.304688 49.148438 C 47.34375 49.109375 47.378906 49.066406 47.40625 49.019531 C 47.441406 48.953125 47.46875 48.886719 47.488281 48.816406 Z M 47.488281 48.808594 " fill-opacity="1" fill-rule="nonzero"/></g><g clip-path="url(#74cce9a115)"><g clip-path="url(#e56ec5b772)"><g clip-path="url(#8b6fd9f294)"><path fill="#ffffff" d="M 44.777344 19.476562 C 44.671875 19.4375 44.574219 19.382812 44.488281 19.304688 C 44.292969 19.105469 44.152344 18.863281 44.070312 18.585938 C 44.011719 18.410156 43.929688 18.242188 43.824219 18.089844 C 43.675781 17.933594 43.503906 17.816406 43.3125 17.734375 L 43.222656 17.699219 C 43.019531 17.613281 42.832031 17.5 42.660156 17.363281 C 42.40625 17.171875 42.273438 16.90625 42.265625 16.574219 C 42.28125 16.347656 42.347656 16.136719 42.46875 15.941406 C 42.714844 15.488281 43.03125 15.089844 43.414062 14.753906 C 43.617188 14.546875 43.859375 14.425781 44.136719 14.382812 C 44.394531 14.378906 44.632812 14.449219 44.847656 14.597656 C 45.367188 14.90625 45.816406 15.300781 46.195312 15.785156 C 46.445312 16.078125 46.621094 16.414062 46.722656 16.796875 C 46.804688 17.175781 46.796875 17.558594 46.699219 17.941406 C 46.605469 18.472656 46.359375 18.910156 45.957031 19.261719 C 45.59375 19.550781 45.199219 19.621094 44.777344 19.476562 Z M 44.152344 14.804688 C 43.964844 14.84375 43.800781 14.933594 43.664062 15.074219 C 43.320312 15.378906 43.039062 15.730469 42.816406 16.140625 C 42.734375 16.265625 42.679688 16.40625 42.660156 16.558594 C 42.675781 16.753906 42.757812 16.910156 42.910156 17.027344 C 43.058594 17.140625 43.21875 17.234375 43.390625 17.308594 L 43.484375 17.34375 C 43.726562 17.453125 43.941406 17.605469 44.121094 17.808594 C 44.261719 17.992188 44.367188 18.195312 44.4375 18.421875 C 44.503906 18.632812 44.609375 18.820312 44.753906 18.980469 C 44.898438 19.085938 45.0625 19.132812 45.238281 19.121094 C 45.417969 19.109375 45.578125 19.046875 45.71875 18.925781 C 46.035156 18.636719 46.226562 18.285156 46.304688 17.863281 C 46.382812 17.546875 46.394531 17.230469 46.332031 16.917969 C 46.242188 16.59375 46.09375 16.3125 45.878906 16.066406 C 45.53125 15.621094 45.117188 15.253906 44.636719 14.96875 C 44.496094 14.859375 44.335938 14.800781 44.15625 14.789062 Z M 44.152344 14.804688 " fill-opacity="1" fill-rule="nonzero"/></g></g></g><g clip-path="url(#2ed8fda639)"><g clip-path="url(#ee90cffc38)"><g clip-path="url(#a54f034b8a)"><path fill="#ffffff" d="M 44.878906 14.816406 C 44.710938 14.746094 44.554688 14.648438 44.417969 14.53125 C 44.261719 14.429688 44.144531 14.292969 44.070312 14.121094 C 44.003906 13.894531 44.03125 13.679688 44.144531 13.46875 C 44.21875 13.339844 44.300781 13.214844 44.394531 13.097656 L 44.480469 12.988281 C 44.578125 12.832031 44.707031 12.710938 44.859375 12.617188 C 45.09375 12.503906 45.320312 12.511719 45.539062 12.632812 C 45.734375 12.734375 45.886719 12.886719 46 13.082031 C 46.109375 13.277344 46.164062 13.492188 46.160156 13.722656 C 46.160156 14.007812 46.074219 14.265625 45.898438 14.492188 C 45.710938 14.738281 45.46875 14.863281 45.175781 14.871094 C 45.074219 14.871094 44.976562 14.851562 44.878906 14.816406 Z M 45.027344 12.992188 C 44.933594 13.058594 44.855469 13.136719 44.796875 13.234375 L 44.707031 13.355469 C 44.628906 13.449219 44.5625 13.546875 44.503906 13.652344 C 44.445312 13.75 44.429688 13.855469 44.453125 13.960938 C 44.503906 14.058594 44.574219 14.128906 44.664062 14.183594 C 44.8125 14.328125 44.988281 14.417969 45.195312 14.449219 C 45.359375 14.4375 45.492188 14.363281 45.59375 14.222656 C 45.703125 14.074219 45.757812 13.910156 45.757812 13.726562 C 45.761719 13.398438 45.625 13.160156 45.351562 13.011719 C 45.25 12.953125 45.140625 12.945312 45.03125 12.988281 Z M 45.027344 12.992188 " fill-opacity="1" fill-rule="nonzero"/></g></g></g><g clip-path="url(#9741792fe5)"><g clip-path="url(#4f424c8b6d)"><g clip-path="url(#ee2b111e65)"><path fill="#ffffff" d="M 46.289062 15.84375 C 46.210938 15.816406 46.144531 15.78125 46.078125 15.734375 C 45.792969 15.558594 45.667969 15.296875 45.703125 14.945312 C 45.789062 14.644531 45.964844 14.417969 46.234375 14.269531 L 46.34375 14.183594 L 46.40625 14.132812 C 46.542969 14 46.703125 13.917969 46.882812 13.882812 C 47.171875 13.875 47.386719 13.996094 47.535156 14.246094 C 47.664062 14.460938 47.714844 14.691406 47.6875 14.949219 C 47.65625 15.203125 47.554688 15.425781 47.378906 15.613281 C 47.050781 15.917969 46.6875 15.992188 46.289062 15.84375 Z M 47.003906 14.304688 C 46.972656 14.292969 46.941406 14.289062 46.910156 14.292969 C 46.808594 14.324219 46.71875 14.375 46.640625 14.453125 L 46.574219 14.519531 L 46.457031 14.609375 C 46.289062 14.738281 46.128906 14.863281 46.113281 15 C 46.109375 15.171875 46.179688 15.300781 46.324219 15.378906 C 46.445312 15.464844 46.582031 15.5 46.734375 15.488281 C 46.886719 15.472656 47.019531 15.414062 47.136719 15.304688 C 47.238281 15.191406 47.296875 15.058594 47.308594 14.902344 C 47.324219 14.75 47.289062 14.609375 47.207031 14.484375 C 47.160156 14.402344 47.089844 14.339844 47.003906 14.304688 Z M 47.003906 14.304688 " fill-opacity="1" fill-rule="nonzero"/></g></g></g><g clip-path="url(#84c5324203)"><g clip-path="url(#4dd38fe0d0)"><g clip-path="url(#90c68a6187)"><path fill="#ffffff" d="M 47.152344 17.609375 C 47.042969 17.570312 46.949219 17.511719 46.867188 17.429688 C 46.730469 17.277344 46.636719 17.097656 46.585938 16.890625 C 46.488281 16.628906 46.511719 16.371094 46.660156 16.125 C 46.84375 15.910156 47.066406 15.8125 47.332031 15.828125 C 47.5625 15.820312 47.789062 15.84375 48.011719 15.894531 C 48.160156 15.921875 48.289062 15.992188 48.394531 16.105469 C 48.527344 16.292969 48.558594 16.503906 48.484375 16.730469 C 48.398438 17.105469 48.191406 17.378906 47.867188 17.558594 C 47.628906 17.679688 47.390625 17.695312 47.152344 17.609375 Z M 48.015625 16.34375 L 47.925781 16.308594 C 47.730469 16.265625 47.535156 16.246094 47.335938 16.25 C 47.15625 16.257812 47.042969 16.296875 46.992188 16.367188 C 46.9375 16.4375 46.953125 16.625 46.992188 16.742188 C 47.019531 16.878906 47.078125 17 47.167969 17.101562 C 47.324219 17.257812 47.503906 17.285156 47.703125 17.191406 C 47.914062 17.070312 48.046875 16.890625 48.101562 16.648438 C 48.132812 16.566406 48.128906 16.484375 48.089844 16.40625 C 48.070312 16.378906 48.042969 16.355469 48.015625 16.34375 Z M 48.015625 16.34375 " fill-opacity="1" fill-rule="nonzero"/></g></g></g><g clip-path="url(#9cb99a5e9f)"><path fill="#ffffff" d="M 76.496094 12.523438 L 76.625 12.464844 C 76.699219 12.429688 76.78125 12.402344 76.863281 12.378906 C 77.023438 12.335938 77.183594 12.316406 77.347656 12.316406 C 77.542969 12.320312 77.734375 12.363281 77.917969 12.4375 C 77.953125 12.230469 78.015625 12.03125 78.097656 11.839844 C 78.242188 11.539062 78.449219 11.292969 78.726562 11.105469 C 79.023438 10.910156 79.34375 10.808594 79.699219 10.800781 C 80.050781 10.789062 80.378906 10.871094 80.683594 11.046875 C 81 11.222656 81.238281 11.472656 81.40625 11.792969 C 81.574219 12.109375 81.636719 12.445312 81.601562 12.800781 C 81.550781 13.394531 81.246094 14.085938 80.75 14.359375 C 80.886719 14.785156 81.046875 15.199219 81.230469 15.605469 C 81.445312 16.085938 81.699219 16.542969 81.992188 16.976562 C 82.285156 17.40625 82.617188 17.808594 82.980469 18.175781 C 83.296875 18.5 83.636719 18.800781 84 19.074219 C 84.535156 18.859375 85.0625 18.878906 85.582031 19.128906 C 85.890625 19.273438 86.140625 19.492188 86.332031 19.777344 C 86.523438 20.0625 86.628906 20.378906 86.648438 20.722656 C 86.667969 21.070312 86.597656 21.394531 86.441406 21.703125 C 86.28125 22.007812 86.058594 22.25 85.765625 22.433594 C 85.265625 22.691406 84.742188 22.761719 84.195312 22.644531 C 84.136719 23.167969 83.890625 23.582031 83.460938 23.886719 C 82.980469 24.273438 82.203125 24.308594 81.574219 23.976562 C 81.539062 23.960938 81.503906 23.941406 81.46875 23.917969 C 81.207031 23.761719 80.996094 23.550781 80.839844 23.285156 C 80.660156 22.980469 80.570312 22.652344 80.566406 22.296875 C 80.570312 21.714844 80.785156 21.226562 81.210938 20.832031 C 81.125 20.382812 81.003906 19.941406 80.851562 19.511719 C 80.683594 19.019531 80.476562 18.550781 80.222656 18.097656 C 79.964844 17.640625 79.667969 17.210938 79.332031 16.804688 C 79.085938 16.539062 78.816406 16.296875 78.523438 16.085938 C 78.390625 15.984375 78.257812 15.875 78.140625 15.785156 C 77.671875 16.066406 77.183594 16.109375 76.671875 15.917969 C 76.339844 15.792969 76.066406 15.585938 75.851562 15.296875 C 75.640625 15.007812 75.523438 14.6875 75.496094 14.328125 C 75.476562 13.972656 75.546875 13.636719 75.710938 13.324219 C 75.871094 13.011719 76.105469 12.761719 76.40625 12.578125 Z M 76.785156 15.613281 C 77.238281 15.785156 77.660156 15.734375 78.054688 15.453125 C 78.125 15.394531 78.195312 15.394531 78.265625 15.453125 C 78.402344 15.574219 78.5625 15.695312 78.730469 15.828125 C 79.042969 16.050781 79.332031 16.308594 79.589844 16.59375 C 79.933594 17.015625 80.242188 17.464844 80.507812 17.9375 C 80.769531 18.40625 80.984375 18.898438 81.15625 19.410156 C 81.324219 19.882812 81.453125 20.371094 81.542969 20.867188 C 81.554688 20.929688 81.539062 20.980469 81.492188 21.023438 C 81.09375 21.351562 80.894531 21.773438 80.890625 22.292969 C 80.890625 22.585938 80.96875 22.863281 81.117188 23.113281 C 81.265625 23.363281 81.464844 23.550781 81.71875 23.683594 C 81.957031 23.824219 82.214844 23.886719 82.492188 23.878906 C 82.769531 23.867188 83.023438 23.785156 83.25 23.628906 C 83.707031 23.261719 83.90625 22.871094 83.867188 22.421875 C 83.859375 22.355469 83.882812 22.304688 83.941406 22.269531 C 83.996094 22.234375 84.054688 22.234375 84.109375 22.269531 C 84.453125 22.46875 85.246094 22.371094 85.59375 22.152344 C 85.828125 22.003906 86.007812 21.808594 86.136719 21.566406 C 86.269531 21.320312 86.328125 21.058594 86.324219 20.78125 C 86.304688 20.21875 86.058594 19.789062 85.578125 19.5 C 85.535156 19.472656 85.488281 19.449219 85.441406 19.425781 C 84.980469 19.207031 84.511719 19.203125 84.046875 19.414062 C 83.988281 19.441406 83.933594 19.433594 83.882812 19.398438 C 83.480469 19.101562 83.105469 18.773438 82.753906 18.414062 C 82.375 18.03125 82.03125 17.613281 81.730469 17.167969 C 81.425781 16.714844 81.164062 16.242188 80.945312 15.742188 C 80.742188 15.296875 80.570312 14.835938 80.421875 14.363281 C 80.398438 14.328125 80.390625 14.289062 80.398438 14.246094 C 80.40625 14.179688 80.445312 14.140625 80.503906 14.117188 C 80.933594 13.96875 81.242188 13.316406 81.289062 12.773438 C 81.320312 12.480469 81.265625 12.203125 81.128906 11.941406 C 80.988281 11.679688 80.785156 11.472656 80.527344 11.328125 C 80.273438 11.1875 80 11.117188 79.710938 11.128906 C 79.421875 11.136719 79.152344 11.222656 78.910156 11.378906 C 78.683594 11.53125 78.507812 11.730469 78.390625 11.980469 C 78.292969 12.210938 78.238281 12.453125 78.222656 12.703125 C 78.21875 12.765625 78.1875 12.808594 78.132812 12.839844 C 78.078125 12.867188 78.023438 12.863281 77.972656 12.832031 C 77.78125 12.710938 77.570312 12.648438 77.34375 12.648438 C 77.207031 12.648438 77.078125 12.667969 76.945312 12.703125 C 76.878906 12.71875 76.816406 12.738281 76.753906 12.765625 L 76.65625 12.8125 L 76.578125 12.855469 C 76.332031 13.007812 76.140625 13.214844 76.007812 13.476562 C 75.875 13.734375 75.816406 14.011719 75.832031 14.304688 C 75.851562 14.597656 75.949219 14.859375 76.121094 15.097656 C 76.292969 15.335938 76.515625 15.507812 76.785156 15.613281 Z M 76.785156 15.613281 " fill-opacity="1" fill-rule="nonzero"/></g><g fill="#f97e2b" fill-opacity="1"><g transform="translate(49.716241, 20.864037)"><g><path d="M 4.257812 -0.0078125 C 4.117188 -0.34375 4.117188 -1.164062 4.285156 -1.4375 C 3.738281 -1.546875 3.394531 -0.996094 3.375 -0.390625 L 2.199219 -0.398438 C 2.164062 -0.507812 2.144531 -0.625 2.144531 -0.734375 L 2.140625 -2.394531 L 2.621094 -2.394531 C 2.957031 -2.394531 2.976562 -2.085938 2.976562 -1.925781 C 3.035156 -1.90625 3.285156 -1.890625 3.355469 -1.898438 L 3.355469 -3.148438 C 3.285156 -3.148438 3.035156 -3.140625 2.976562 -3.113281 C 2.972656 -2.878906 2.972656 -2.652344 2.621094 -2.652344 L 2.140625 -2.652344 L 2.140625 -3.972656 C 2.140625 -4.0625 2.152344 -4.128906 2.171875 -4.1875 L 3.316406 -4.195312 C 3.335938 -3.597656 3.679688 -3.042969 4.226562 -3.148438 C 4.058594 -3.421875 4.058594 -4.238281 4.199219 -4.585938 L 2.378906 -4.585938 L 2.386719 -4.585938 C 2.203125 -4.585938 1.859375 -4.550781 1.503906 -4.550781 C 1.066406 -4.550781 0.617188 -4.605469 0.441406 -4.839844 C 0.359375 -4.785156 0.265625 -4.636719 0.265625 -4.441406 C 0.265625 -4.160156 0.378906 -3.953125 0.558594 -3.832031 L 0.554688 -0.734375 C 0.554688 -0.519531 0.476562 -0.261719 0.351562 -0.0859375 L 0.292969 0 L 2.40625 0 L 2.40625 -0.0078125 Z M 4.257812 -0.0078125 "/></g></g></g><g fill="#f97e2b" fill-opacity="1"><g transform="translate(54.229332, 20.864037)"><g><path d="M 4.96875 -0.300781 C 4.957031 -0.292969 4.949219 -0.292969 4.941406 -0.292969 C 4.449219 -0.292969 4.519531 -1.058594 4.519531 -1.554688 L 4.519531 -3.074219 C 4.304688 -3.050781 4.011719 -3.003906 3.71875 -3.003906 C 3.367188 -3.003906 3.03125 -3.070312 2.847656 -3.316406 C 2.757812 -3.257812 2.667969 -3.109375 2.667969 -2.914062 C 2.667969 -2.632812 2.785156 -2.433594 2.957031 -2.300781 L 2.957031 -2.066406 C 2.992188 -1.417969 2.515625 -0.496094 2.296875 -0.410156 C 2.074219 -0.320312 2.105469 -0.558594 2.105469 -0.921875 C 2.101562 -1.386719 2.113281 -1.828125 2.113281 -2.203125 C 2.113281 -2.898438 1.660156 -3.167969 0.96875 -3.167969 C 0.535156 -3.160156 0.1875 -3.011719 0.105469 -2.769531 C 0.109375 -2.769531 0.125 -2.777344 0.128906 -2.777344 C 0.617188 -2.777344 0.554688 -2.023438 0.554688 -1.535156 C 0.554688 -1.386719 0.546875 -1.085938 0.546875 -1.019531 C 0.554688 -0.300781 1 0.0585938 1.671875 0.078125 C 2.339844 0.0898438 2.75 -0.332031 2.957031 -0.878906 L 2.953125 -0.859375 C 2.953125 -0.167969 3.414062 0.0976562 4.101562 0.0976562 C 4.53125 0.0898438 4.882812 -0.0585938 4.96875 -0.300781 Z M 4.96875 -0.300781 "/></g></g></g><g fill="#f97e2b" fill-opacity="1"><g transform="translate(59.431743, 20.864037)"><g/></g></g><g fill="#f97e2b" fill-opacity="1"><g transform="translate(61.545222, 20.864037)"><g><path d="M 2.503906 -0.402344 C 2.730469 -0.03125 3.09375 0.078125 3.621094 0.078125 C 3.910156 0.078125 4.277344 0.0078125 4.390625 -0.300781 C 3.835938 -0.304688 3.941406 -1.59375 3.941406 -1.90625 C 3.941406 -2.796875 3.050781 -3.148438 2.289062 -3.148438 C 1.964844 -3.148438 1.660156 -3.03125 1.347656 -3.03125 C 1.085938 -3.03125 0.882812 -3.128906 0.726562 -3.34375 C 0.597656 -3.257812 0.546875 -3.082031 0.546875 -2.945312 C 0.546875 -2.472656 0.898438 -2.191406 1.351562 -2.191406 C 2.015625 -2.191406 1.71875 -2.875 2.074219 -2.875 C 2.296875 -2.875 2.359375 -2.652344 2.378906 -2.433594 C 2.425781 -1.839844 2.222656 -1.789062 1.945312 -1.789062 C 1.652344 -1.789062 1.378906 -1.90625 1.078125 -1.90625 C 0.597656 -1.90625 0.164062 -1.660156 0.164062 -1.125 C 0.164062 -0.324219 0.8125 0.0976562 1.699219 0.0859375 C 2.066406 0.078125 2.359375 -0.109375 2.503906 -0.402344 Z M 1.625 -1.164062 C 1.625 -1.722656 2.164062 -1.390625 2.386719 -1.585938 C 2.378906 -1.378906 2.378906 -1.175781 2.378906 -0.96875 C 2.359375 -0.832031 2.386719 -0.566406 2.140625 -0.566406 C 1.828125 -0.566406 1.625 -0.878906 1.625 -1.164062 Z M 1.625 -1.164062 "/></g></g></g><g fill="#f97e2b" fill-opacity="1"><g transform="translate(66.038805, 20.864037)"><g><path d="M 7.355469 -0.300781 C 7.34375 -0.292969 7.335938 -0.292969 7.324219 -0.292969 C 6.835938 -0.292969 6.898438 -1.046875 6.898438 -1.535156 C 6.898438 -1.683594 6.90625 -1.984375 6.90625 -2.046875 C 6.90625 -2.769531 6.457031 -3.128906 5.789062 -3.148438 C 5.113281 -3.160156 4.695312 -2.730469 4.492188 -2.179688 C 4.441406 -2.808594 4.007812 -3.128906 3.382812 -3.148438 C 2.699219 -3.160156 2.28125 -2.726562 2.082031 -2.164062 L 1.8125 -3.101562 C 1.613281 -3.074219 1.378906 -3.035156 1.15625 -3.035156 C 0.863281 -3.035156 0.589844 -3.101562 0.417969 -3.34375 C 0.332031 -3.285156 0.234375 -3.132812 0.234375 -2.9375 C 0.234375 -2.667969 0.351562 -2.457031 0.535156 -2.328125 L 0.527344 -0.859375 C 0.519531 -0.167969 0.980469 0.0976562 1.671875 0.0976562 C 2.101562 0.0898438 2.453125 -0.0585938 2.535156 -0.300781 C 2.53125 -0.292969 2.515625 -0.292969 2.511719 -0.292969 C 2.183594 -0.292969 2.105469 -0.628906 2.085938 -1 C 2.0625 -1.652344 2.535156 -2.574219 2.75 -2.660156 C 2.972656 -2.75 2.945312 -2.511719 2.945312 -2.144531 C 2.945312 -1.683594 2.933594 -1.242188 2.933594 -0.863281 C 2.933594 -0.167969 3.394531 0.105469 4.078125 0.0976562 C 4.511719 0.0976562 4.863281 -0.0585938 4.949219 -0.300781 C 4.9375 -0.292969 4.929688 -0.292969 4.917969 -0.292969 C 4.589844 -0.292969 4.511719 -0.636719 4.492188 -1 C 4.460938 -1.652344 4.941406 -2.574219 5.15625 -2.660156 C 5.378906 -2.75 5.351562 -2.511719 5.351562 -2.144531 C 5.351562 -1.683594 5.339844 -1.242188 5.339844 -0.863281 C 5.339844 -0.167969 5.800781 0.105469 6.484375 0.0976562 C 6.917969 0.0976562 7.269531 -0.0585938 7.355469 -0.300781 Z M 7.355469 -0.300781 "/></g></g></g><g fill="#f97e2b" fill-opacity="1"><g transform="translate(73.582302, 20.864037)"><g><path d="M 4.089844 -1.527344 C 4.089844 -2.632812 3.296875 -3.148438 2.132812 -3.148438 C 0.890625 -3.148438 0.167969 -2.582031 0.167969 -1.527344 C 0.167969 -0.480469 0.96875 0.0898438 2.132812 0.0898438 C 3.289062 0.0898438 4.089844 -0.421875 4.089844 -1.527344 Z M 1.71875 -1.527344 C 1.703125 -2.398438 1.773438 -2.875 2.121094 -2.875 C 2.457031 -2.878906 2.535156 -2.453125 2.550781 -1.535156 C 2.554688 -0.617188 2.484375 -0.1875 2.144531 -0.1875 C 1.800781 -0.183594 1.722656 -0.65625 1.71875 -1.527344 Z M 1.71875 -1.527344 "/></g></g></g><g fill="#b55040" fill-opacity="1"><g transform="translate(53.987436, 28.112794)"><g><path d="M 3.230469 1.492188 C 3.222656 1.492188 3.203125 1.492188 3.195312 1.492188 C 2.574219 1.492188 2.65625 0.53125 2.65625 -0.0976562 C 2.882812 0.0976562 3.195312 0.125 3.484375 0.125 C 4.828125 0.125 5.546875 -0.96875 5.605469 -2.128906 C 5.671875 -3.355469 5.019531 -4.050781 3.785156 -4.007812 C 3.222656 -3.992188 2.757812 -3.703125 2.617188 -3.46875 L 2.359375 -3.949219 C 2.121094 -3.882812 1.820312 -3.824219 1.53125 -3.824219 C 1.152344 -3.824219 0.769531 -3.933594 0.53125 -4.257812 C 0.421875 -4.179688 0.296875 -3.992188 0.296875 -3.742188 C 0.296875 -3.394531 0.445312 -3.128906 0.679688 -2.964844 L 0.671875 0.769531 C 0.671875 1.648438 1.25 1.996094 2.128906 1.988281 C 2.675781 1.988281 3.121094 1.796875 3.230469 1.492188 Z M 2.589844 -1.980469 C 2.589844 -1.980469 2.589844 -1.988281 2.589844 -1.988281 L 2.589844 -2.386719 C 2.601562 -2.722656 2.648438 -3.371094 3.113281 -3.371094 C 3.949219 -3.371094 3.75 -0.421875 3.082031 -0.347656 C 2.582031 -0.296875 2.589844 -1.773438 2.589844 -1.980469 Z M 2.589844 -1.980469 "/></g></g></g><g fill="#b55040" fill-opacity="1"><g transform="translate(59.808559, 28.112794)"><g><path d="M 4.925781 -1.257812 C 4.945312 -1.375 4.933594 -1.425781 4.878906 -1.425781 C 4.835938 -1.425781 4.785156 -1.40625 4.71875 -1.367188 C 4.398438 -1.183594 3.800781 -0.984375 3.121094 -1.058594 C 3.253906 -0.605469 3.113281 -0.273438 2.898438 -0.265625 C 2.589844 -0.238281 2.226562 -0.710938 2.121094 -1.671875 C 2.320312 -1.648438 2.566406 -1.632812 2.839844 -1.632812 C 3.777344 -1.632812 4.945312 -1.839844 4.960938 -2.714844 C 4.976562 -3.46875 4.058594 -4.007812 2.714844 -4.007812 C 1.101562 -4.007812 0.207031 -3.246094 0.207031 -1.945312 C 0.207031 -0.636719 1.285156 0.0976562 2.734375 0.117188 C 4.015625 0.125 4.761719 -0.371094 4.925781 -1.257812 Z M 2.789062 -3.660156 C 3.203125 -3.703125 3.386719 -3.371094 3.355469 -3.003906 C 3.296875 -2.394531 2.957031 -2.054688 2.085938 -2.070312 C 2.054688 -2.980469 2.269531 -3.609375 2.789062 -3.660156 Z M 2.789062 -3.660156 "/></g></g></g><g fill="#b55040" fill-opacity="1"><g transform="translate(64.967249, 28.112794)"><g><path d="M 3.511719 -0.4375 C 2.832031 -0.4375 2.75 -0.761719 2.75 -1.367188 L 2.75 -3.519531 L 3.363281 -3.519531 C 3.460938 -3.519531 3.527344 -3.585938 3.527344 -3.683594 L 3.527344 -3.710938 C 3.527344 -3.808594 3.460938 -3.875 3.363281 -3.875 L 2.75 -3.875 L 2.75 -5.53125 C 2.476562 -5.5 2.203125 -5.441406 1.9375 -5.441406 C 1.621094 -5.441406 1.324219 -5.523438 1.085938 -5.835938 C 0.976562 -5.769531 0.851562 -5.582031 0.851562 -5.324219 C 0.851562 -4.976562 0.992188 -4.695312 1.234375 -4.546875 C 1.566406 -4.347656 1.21875 -3.875 0.53125 -3.875 L 0.28125 -3.875 C 0.183594 -3.875 0.117188 -3.808594 0.117188 -3.710938 L 0.117188 -3.683594 C 0.117188 -3.585938 0.183594 -3.519531 0.28125 -3.519531 L 0.71875 -3.519531 L 0.71875 -1.09375 C 0.710938 -0.214844 1.308594 0.125 2.203125 0.125 C 2.824219 0.117188 3.394531 -0.109375 3.511719 -0.4375 Z M 3.511719 -0.4375 "/></g></g></g><g fill="#b55040" fill-opacity="1"><g transform="translate(68.652028, 28.112794)"><g><path d="M 4.703125 -1.09375 C 4.703125 -2.367188 2.328125 -2.515625 2.34375 -3.253906 C 2.34375 -3.453125 2.507812 -3.550781 2.832031 -3.535156 C 3.195312 -3.511719 3.683594 -3.246094 3.925781 -2.890625 C 3.992188 -2.796875 4.023438 -2.757812 4.058594 -2.757812 C 4.082031 -2.757812 4.105469 -2.808594 4.15625 -2.914062 C 4.304688 -3.253906 4.613281 -3.519531 4.613281 -3.808594 C 4.613281 -4.050781 4.429688 -4.230469 4.238281 -4.339844 C 4.074219 -3.976562 3.777344 -3.859375 3.402344 -3.859375 C 2.890625 -3.859375 2.386719 -4.023438 1.871094 -4.023438 C 1.117188 -4.023438 0.304688 -3.71875 0.304688 -2.816406 C 0.304688 -1.375 2.515625 -1.398438 2.515625 -0.605469 C 2.515625 -0.390625 2.328125 -0.316406 2.144531 -0.316406 C 1.507812 -0.316406 0.796875 -0.960938 0.480469 -1.480469 C 0.339844 -1.351562 0.207031 -1.199219 0.207031 -0.992188 C 0.207031 -0.0585938 1.90625 0.117188 2.542969 0.117188 C 3.355469 0.117188 4.703125 0.0234375 4.703125 -1.09375 Z M 4.703125 -1.09375 "/></g></g></g></svg>